<svg width="427" height="485" viewBox="0 0 427 485" fill="none" xmlns="http://www.w3.org/2000/svg">
<path d="M337.765 5.10345C354.935 -7.52719 379.173 4.73215 379.173 26.0468V187.821L424.037 265.53C429.81 275.53 422.593 288.03 411.047 288.03H400.398C398.693 287.775 396.949 287.642 395.173 287.642H345.173C325.843 287.642 310.173 303.312 310.173 322.642V345.366L310.172 345.367V376.042C310.171 386.866 301.396 395.641 290.572 395.642C279.747 395.641 270.973 386.866 270.972 376.042V367.733H270.971V344.241C270.971 333.416 262.197 324.642 251.372 324.642C240.547 324.642 231.772 333.416 231.772 344.241V376.041C231.772 376.548 231.79 377.051 231.828 377.548C231.79 377.552 231.752 377.558 231.714 377.562C230.937 387.676 222.485 395.641 212.173 395.642C201.775 395.642 193.269 387.545 192.614 377.313C192.586 377.31 192.558 377.305 192.53 377.302C192.556 376.885 192.572 376.464 192.572 376.041V344.241C192.572 333.416 183.797 324.642 172.972 324.642C162.148 324.642 153.373 333.416 153.373 344.241V366.93C153.306 366.902 153.239 366.876 153.173 366.849V465.142C153.172 475.911 144.442 484.641 133.673 484.642C122.903 484.642 114.173 475.911 114.173 465.142V344.142C114.173 344.024 114.174 343.906 114.176 343.789C114.175 343.788 114.174 343.786 114.173 343.785V322.642C114.173 303.312 98.5024 287.642 79.1726 287.642H29.1726C27.3965 287.642 25.651 287.775 23.946 288.03H15.0222C3.47524 288.03 -3.74142 275.53 2.03196 265.53L47.3855 186.975C47.6322 186.547 47.8956 186.139 48.1726 185.748V26.0468C48.1726 4.7321 72.4107 -7.52734 89.5798 5.10345L174.333 67.4531C186.759 64.3123 199.771 62.6415 213.173 62.6415C226.842 62.6416 240.106 64.3783 252.756 67.6415L337.765 5.10345ZM223.199 271.142C218.965 263.808 208.38 263.808 204.146 271.142L195.052 286.892C190.819 294.225 196.111 303.391 204.579 303.392H222.765C231.233 303.392 236.526 294.225 232.292 286.892L223.199 271.142ZM102.627 171.642C91.3301 171.642 82.1727 180.799 82.1726 192.096C82.1726 222.22 106.593 246.641 136.718 246.642H173.296C184.273 246.642 193.173 237.742 193.173 226.765C193.172 196.321 168.492 171.642 138.049 171.642H102.627ZM288.296 171.642C257.852 171.642 233.173 196.321 233.173 226.765C233.173 237.742 242.071 246.642 253.049 246.642H289.627C319.751 246.642 344.173 222.22 344.173 192.096C344.172 180.799 335.014 171.642 323.718 171.642H288.296Z" fill="white"/>
</svg>
