<?xml version="1.0" encoding="UTF-8"?>
<svg id="Layer_2" data-name="Layer 2" xmlns="http://www.w3.org/2000/svg" viewBox="0 0 481.4 474.72">
  <defs>
    <style>
      .cls-1 {
        fill: #343535;
      }

      .cls-1, .cls-2, .cls-3, .cls-4, .cls-5, .cls-6, .cls-7, .cls-8, .cls-9, .cls-10, .cls-11, .cls-12, .cls-13, .cls-14, .cls-15 {
        stroke-width: 0px;
      }

      .cls-2 {
        fill: #fab376;
      }

      .cls-3 {
        fill: #58c2b1;
      }

      .cls-4 {
        opacity: .14;
      }

      .cls-4, .cls-7 {
        fill: #1f2121;
      }

      .cls-6 {
        fill: #e0e0e0;
      }

      .cls-8 {
        fill: #f5f5f5;
      }

      .cls-9 {
        opacity: .2;
      }

      .cls-10 {
        fill: #e78835;
      }

      .cls-16, .cls-14 {
        opacity: .1;
      }

      .cls-11 {
        fill: #f89e49;
      }

      .cls-12 {
        fill: #d67b2f;
      }

      .cls-13 {
        fill: #fafbfb;
      }

      .cls-15 {
        fill: #131313;
      }
    </style>
  </defs>
  <g id="Layer_1-2" data-name="Layer 1">
    <g>
      <ellipse id="Shadow" class="cls-4" cx="240.7" cy="335.75" rx="240.7" ry="138.97"/>
      <g id="_404" data-name="404">
        <g id="_404-2" data-name="404">
          <g>
            <g>
              <path class="cls-3" d="m260.34,398.91l-16.28,9.39c-.91.53-2.03.79-3.36.79s-2.44-.26-3.34-.79l-12.68-7.32-39.15,22.61c-.91.52-2.03.79-3.36.79s-2.43-.27-3.36-.79l-13.17-7.61c-2.16-1.24-3.4-2.58-3.73-4.02l-9.7-48.5c-.06-.32-.07-.61-.07-.86,0,.94-.01,13.04,0,13.63,0,.23.03.48.07.75l9.7,48.5c.33,1.44,1.57,2.78,3.73,4.02l13.17,7.61c.92.52,2.03.79,3.36.79s2.45-.27,3.36-.79l39.15-22.61,12.68,7.32c.91.53,2.02.79,3.34.79s2.45-.26,3.36-.79l16.28-9.39c.91-.53,1.37-1.17,1.37-1.95v-13.52c0,.76-.46,1.41-1.37,1.95Z"/>
              <path class="cls-3" d="m259.72,393.12v-13.52c0,.76-.46,1.41-1.37,1.95l-10.69,6.17,11.54,6.66c.33-.37.52-.79.52-1.25Z"/>
              <polygon class="cls-3" points="185.6 391.22 193.7 395.92 205.41 389.16 182.55 375.95 185.59 391.22 185.6 391.22"/>
            </g>
            <g>
              <polygon class="cls-12" points="185.6 391.22 193.7 395.92 205.41 389.16 182.55 375.95 185.59 391.22 185.6 391.22"/>
              <path class="cls-10" d="m259.72,393.12v-13.52c0,.76-.46,1.41-1.37,1.95l-10.69,6.17,11.54,6.66c.33-.37.52-.79.52-1.25Z"/>
              <path class="cls-10" d="m260.34,398.91l-16.28,9.39c-.91.53-2.03.79-3.36.79v13.52c1.33,0,2.45-.26,3.36-.79l16.28-9.39c.91-.53,1.37-1.17,1.37-1.95v-13.52c0,.76-.46,1.41-1.37,1.95Z"/>
              <path class="cls-10" d="m161.91,411.97l-9.7-48.5c-.06-.32-.07-.61-.07-.86,0,.94-.01,13.04,0,13.63,0,.23.03.48.07.75l9.7,48.5c.06.27.16.55.3.82v-13.52c-.14-.27-.25-.55-.3-.82Z"/>
              <path class="cls-12" d="m182.17,424.39c-1.33,0-2.43-.27-3.36-.79l-13.17-7.61c-1.74-.99-2.9-2.06-3.43-3.2v13.52c.53,1.14,1.69,2.2,3.43,3.2l13.17,7.61c.92.52,2.03.79,3.36.79.13,0,.25,0,.37-.03v-13.52c-.13.03-.24.03-.37.03Z"/>
              <path class="cls-10" d="m185.53,423.6c-.82.48-1.82.73-2.98.76v13.52c1.17-.03,2.16-.29,2.98-.76l39.15-22.61v-13.52l-39.15,22.61Z"/>
              <path class="cls-12" d="m237.35,408.31l-12.68-7.32v13.52l12.68,7.32c.91.53,2.02.79,3.34.79v-13.52c-1.33,0-2.44-.26-3.34-.79Z"/>
            </g>
            <path class="cls-11" d="m244.06,408.31c-.91.53-2.03.79-3.36.79-1.33,0-2.44-.26-3.35-.79l-12.68-7.32-39.15,22.6c-.91.53-2.03.79-3.36.79-1.33,0-2.44-.26-3.35-.79l-13.17-7.61c-2.15-1.24-3.4-2.58-3.73-4.02l-9.69-48.5c-.16-.96-.08-1.7.25-2.22.33-.53,1.04-1.1,2.11-1.72l18.76-10.83c.91-.52,2.03-.79,3.36-.79,1.33,0,2.44.26,3.35.79l47.72,27.55,10.69-6.17c.91-.53,2.03-.79,3.36-.79,1.33,0,2.44.26,3.36.79l13.17,7.6c.91.53,1.37,1.17,1.37,1.94,0,.77-.46,1.41-1.37,1.94l-10.69,6.17,12.67,7.32c.91.53,1.37,1.17,1.37,1.94,0,.77-.46,1.41-1.37,1.94l-16.28,9.4Zm-38.65-19.16l-22.86-13.2,4.72,23.68,18.14-10.48Z"/>
          </g>
          <g>
            <g>
              <path class="cls-3" d="m347.82,338.9c-.06,3.26-1.34,6.58-3.8,9.97-2.65,3.63-7.07,7.25-13.3,10.84-6.21,3.59-12.46,6.14-18.76,7.68-6.3,1.53-12.45,2.26-18.46,2.19-5.99-.07-11.79-.88-17.33-2.41-5.55-1.53-10.69-3.52-15.42-5.97-3.56-1.86-7.28-3.92-11.18-6.17-3.89-2.25-7.54-4.44-10.94-6.6-4.22-2.72-7.67-5.69-10.3-8.89-2.67-3.21-4.05-6.54-4.16-10.01.07,2.15-.09,11.15,0,13.52.12,3.47,1.5,6.8,4.16,10.01,2.64,3.2,6.08,6.17,10.3,8.89,3.4,2.16,7.05,4.35,10.94,6.6,3.9,2.25,7.62,4.31,11.18,6.18,4.73,2.44,9.87,4.42,15.42,5.95,5.55,1.53,11.34,2.33,17.33,2.41,6.01.07,12.16-.66,18.46-2.19,6.3-1.54,12.55-4.09,18.76-7.68,6.22-3.59,10.65-7.2,13.3-10.84,2.65-3.63,3.92-7.19,3.79-10.65-.07-1.99.06-9.77.01-12.84Z"/>
              <path class="cls-12" d="m296.82,369.51c-1.11.04-2.22.08-3.32.07-5.99-.07-11.79-.88-17.33-2.41-5.55-1.53-10.69-3.52-15.42-5.97-3.56-1.86-7.28-3.92-11.18-6.17-3.89-2.25-7.54-4.44-10.94-6.6-4.22-2.72-7.67-5.69-10.3-8.89-2.67-3.21-4.05-6.54-4.16-10.01.07,2.15-.09,11.15,0,13.52.12,3.47,1.5,6.8,4.16,10.01,2.64,3.2,6.08,6.17,10.3,8.89,3.4,2.16,7.05,4.35,10.94,6.6,3.9,2.25,7.62,4.31,11.18,6.18,4.73,2.44,9.87,4.42,15.42,5.95,5.55,1.53,11.34,2.33,17.33,2.41,1.1.01,2.21-.03,3.32-.07v-13.52Z"/>
              <path class="cls-10" d="m347.82,338.9c-.06,3.26-1.34,6.58-3.8,9.97-2.65,3.63-7.07,7.25-13.3,10.84-6.21,3.59-12.46,6.14-18.76,7.68-5.14,1.25-10.19,1.94-15.14,2.12v13.52c4.95-.18,9.99-.87,15.14-2.12,6.3-1.54,12.55-4.09,18.76-7.68,6.22-3.59,10.65-7.2,13.3-10.84,2.65-3.63,3.92-7.19,3.79-10.65-.07-1.99.06-9.77.01-12.84Z"/>
            </g>
            <g>
              <path class="cls-3" d="m257.41,331.73c.69.72,1.5,1.44,2.42,2.13.42-.27.84-.55,1.3-.82,2.49-1.43,4.93-2.41,7.33-2.94,2.41-.52,4.75-.71,7.03-.53,2.28.17,4.51.62,6.71,1.35,2.19.75,4.41,1.67,6.64,2.77,7.2,3.79,14.16,7.79,20.88,12.06.88.55,1.68,1.11,2.42,1.66,1.77-1.14,3.06-2.28,3.79-3.41.91-1.38,1.24-2.75.99-4.09-.24-1.33-1.01-2.64-2.29-3.9-1.3-1.27-2.92-2.52-4.91-3.76-6.71-4.26-13.67-8.28-20.88-12.06-2.23-1.1-4.45-2.02-6.64-2.77-2.2-.73-4.44-1.18-6.71-1.35-2.28-.17-4.63.01-7.03.53-2.41.53-4.84,1.51-7.33,2.94-2.48,1.44-4.18,2.85-5.09,4.24-.91,1.38-1.22,2.74-.94,4.05.3,1.33,1.07,2.62,2.31,3.92Z"/>
              <path class="cls-12" d="m257.41,331.73c.69.72,1.5,1.44,2.42,2.13.42-.27.84-.55,1.3-.82,2.49-1.43,4.93-2.41,7.33-2.94,2.41-.52,4.75-.71,7.03-.53,2.28.17,4.51.62,6.71,1.35,2.19.75,4.41,1.67,6.64,2.77,7.2,3.79,14.16,7.79,20.88,12.06.88.55,1.68,1.11,2.42,1.66,1.77-1.14,3.06-2.28,3.79-3.41.91-1.38,1.24-2.75.99-4.09-.24-1.33-1.01-2.64-2.29-3.9-1.3-1.27-2.92-2.52-4.91-3.76-6.71-4.26-13.67-8.28-20.88-12.06-2.23-1.1-4.45-2.02-6.64-2.77-2.2-.73-4.44-1.18-6.71-1.35-2.28-.17-4.63.01-7.03.53-2.41.53-4.84,1.51-7.33,2.94-2.48,1.44-4.18,2.85-5.09,4.24-.91,1.38-1.22,2.74-.94,4.05.3,1.33,1.07,2.62,2.31,3.92Z"/>
            </g>
            <path class="cls-11" d="m241.25,308.05c6.21-3.59,12.47-6.15,18.77-7.68,6.3-1.53,12.45-2.26,18.45-2.19,6,.07,11.79.87,17.33,2.4,5.55,1.53,10.69,3.52,15.41,5.95,3.73,1.96,7.54,4.07,11.43,6.32,3.89,2.25,7.45,4.4,10.69,6.46,4.22,2.73,7.66,5.69,10.31,8.9,2.65,3.2,4.04,6.54,4.16,10.01.12,3.47-1.14,7.02-3.79,10.65-2.65,3.63-7.09,7.25-13.3,10.84-6.21,3.59-12.47,6.15-18.77,7.68-6.29,1.53-12.45,2.26-18.45,2.19-6-.07-11.79-.87-17.33-2.4-5.55-1.53-10.69-3.52-15.41-5.95-3.56-1.87-7.29-3.92-11.18-6.17-3.89-2.25-7.54-4.45-10.94-6.6-4.22-2.73-7.66-5.69-10.31-8.9-2.66-3.2-4.04-6.54-4.16-10.01-.12-3.47,1.14-7.02,3.79-10.65,2.65-3.64,7.08-7.25,13.3-10.83Zm68.48,24.18c-6.71-4.26-13.67-8.27-20.88-12.05-2.24-1.1-4.45-2.02-6.65-2.76-2.2-.74-4.43-1.19-6.71-1.36-2.28-.17-4.62.01-7.02.54-2.4.53-4.84,1.51-7.33,2.94-2.48,1.43-4.18,2.85-5.09,4.23-.91,1.39-1.22,2.74-.93,4.05.29,1.32,1.06,2.62,2.3,3.91,1.24,1.29,2.86,2.56,4.85,3.8,6.46,4.21,13.42,8.23,20.88,12.05,2.15,1.15,4.33,2.09,6.52,2.83,2.19.74,4.45,1.19,6.77,1.33,2.32.14,4.68-.05,7.08-.57,2.4-.53,4.85-1.51,7.33-2.94,2.49-1.43,4.18-2.85,5.09-4.23.91-1.39,1.25-2.75.99-4.09-.25-1.34-1.02-2.64-2.3-3.91-1.29-1.27-2.92-2.52-4.91-3.77Z"/>
          </g>
          <g>
            <g>
              <path class="cls-3" d="m441.86,294.11l-16.28,9.39c-.91.53-2.03.79-3.36.79s-2.44-.26-3.34-.79l-12.68-7.32-39.15,22.61c-.91.52-2.03.79-3.36.79s-2.43-.27-3.36-.79l-13.17-7.61c-2.16-1.24-3.4-2.58-3.73-4.02l-9.7-48.5c-.06-.32-.07-.61-.07-.86,0,.94-.01,13.04,0,13.63,0,.23.03.48.07.75l9.7,48.5c.33,1.44,1.57,2.78,3.73,4.02l13.17,7.61c.92.52,2.03.79,3.36.79s2.45-.27,3.36-.79l39.15-22.61,12.68,7.32c.91.53,2.02.79,3.34.79s2.45-.26,3.36-.79l16.28-9.39c.91-.53,1.37-1.17,1.37-1.94v-13.52c0,.76-.46,1.41-1.37,1.94Z"/>
              <path class="cls-3" d="m441.24,288.32v-13.52c0,.76-.46,1.41-1.37,1.95l-10.69,6.17,11.54,6.66c.33-.37.52-.79.52-1.25Z"/>
              <polygon class="cls-3" points="367.13 286.41 375.22 291.11 386.94 284.35 364.07 271.14 367.11 286.41 367.13 286.41"/>
            </g>
            <g>
              <polygon class="cls-12" points="367.13 286.41 375.22 291.11 386.94 284.35 364.07 271.14 367.11 286.41 367.13 286.41"/>
              <path class="cls-10" d="m441.24,288.32v-13.52c0,.76-.46,1.41-1.37,1.95l-10.69,6.17,11.54,6.66c.33-.37.52-.79.52-1.25Z"/>
              <path class="cls-10" d="m441.86,294.11l-16.28,9.39c-.91.53-2.03.79-3.36.79v13.52c1.33,0,2.45-.26,3.36-.79l16.28-9.39c.91-.53,1.37-1.17,1.37-1.94v-13.52c0,.76-.46,1.41-1.37,1.94Z"/>
              <path class="cls-10" d="m343.44,307.16l-9.7-48.5c-.06-.32-.07-.61-.07-.86,0,.94-.01,13.04,0,13.63,0,.23.03.48.07.75l9.7,48.5c.06.27.16.55.3.82v-13.52c-.14-.27-.25-.55-.3-.82Z"/>
              <path class="cls-12" d="m363.7,319.58c-1.33,0-2.43-.27-3.36-.79l-13.17-7.61c-1.74-.99-2.9-2.06-3.43-3.2v13.52c.53,1.14,1.69,2.2,3.43,3.2l13.17,7.61c.92.52,2.03.79,3.36.79.13,0,.25,0,.37-.03v-13.52c-.13.03-.24.03-.37.03Z"/>
              <path class="cls-10" d="m367.05,318.79c-.82.48-1.82.73-2.98.76v13.52c1.17-.03,2.16-.29,2.98-.76l39.15-22.61v-13.52l-39.15,22.61Z"/>
              <path class="cls-12" d="m418.88,303.5l-12.68-7.32v13.52l12.68,7.32c.91.53,2.02.79,3.34.79v-13.52c-1.33,0-2.44-.26-3.34-.79Z"/>
            </g>
            <path class="cls-11" d="m425.59,303.5c-.91.53-2.03.79-3.36.79-1.33,0-2.44-.26-3.35-.79l-12.68-7.32-39.15,22.6c-.91.53-2.03.79-3.36.79-1.33,0-2.44-.26-3.35-.79l-13.17-7.61c-2.15-1.24-3.4-2.58-3.73-4.02l-9.69-48.5c-.16-.96-.08-1.7.25-2.22.33-.53,1.04-1.1,2.11-1.72l18.76-10.83c.91-.52,2.03-.79,3.36-.79,1.33,0,2.44.26,3.35.79l47.72,27.55,10.69-6.17c.91-.53,2.03-.79,3.36-.79,1.33,0,2.44.26,3.36.79l13.17,7.6c.91.53,1.37,1.17,1.37,1.94,0,.77-.46,1.41-1.37,1.94l-10.69,6.17,12.67,7.32c.91.53,1.37,1.17,1.37,1.94,0,.77-.46,1.41-1.37,1.94l-16.28,9.4Zm-38.65-19.16l-22.86-13.2,4.72,23.68,18.14-10.48Z"/>
          </g>
        </g>
      </g>
      <g id="Monster">
        <g>
          <path class="cls-3" d="m146.86,242.42c-5.2-.21-7.5.31-6.69,5.81.81,5.5,1.04,9.73,1.04,9.73,0,0,9.26.27,13.55-2.13,4.29-2.4-.09-13.1-7.91-13.41Z"/>
          <path class="cls-12" d="m146.86,242.42c-5.2-.21-7.5.31-6.69,5.81.81,5.5,1.04,9.73,1.04,9.73,0,0,9.26.27,13.55-2.13,4.29-2.4-.09-13.1-7.91-13.41Z"/>
          <path class="cls-1" d="m147.7,266.03c-.34,0-.68-.03-1.02-.1-2.84-.56-4.68-3.31-4.12-6.15,1.35-6.83,2.68-12.1,3.85-16.75,1.71-6.78,3.06-12.14,3.89-19.7,1.29-11.83-2.45-23.13-6.39-29.76-1.48-2.49-.66-5.7,1.83-7.17,2.48-1.48,5.7-.66,7.17,1.83,2.33,3.92,9.77,18.12,7.79,36.23-.9,8.28-2.4,14.23-4.14,21.12-1.14,4.53-2.44,9.66-3.73,16.21-.49,2.5-2.68,4.22-5.13,4.22Z"/>
          <g>
            <path class="cls-1" d="m135.17,273.11s-.5,2.2-.04,3.07c.73,1.36,4.75,3.02,6.87,3.9,2.12.88,4.46,2.16,6.68,6.2,2.37,4.32,6.69,7.25,11.51,9.08,4.82,1.83,11.84,2.78,20.08.72,8.24-2.06,8.59-7.02,8.59-7.02,0,0,.13-4.66-2-5.25-2.13-.59-51.69-10.7-51.69-10.7Z"/>
            <path class="cls-3" d="m138.5,255.8c-.23,1.47-.57,2.91-1,4.34-1.19,3.91-3.15,7.93-2.33,12.97,1.35,2.41,4.18,3.32,6.3,4.27,2.85,1.27,4.9,2.1,6.94,4.57,3.66,4.43,7.16,10.02,18.23,11.46,11.07,1.44,19.13-2.59,20.94-5.84,1.81-3.24-.23-6.05-7.49-9.36-3.68-1.68-12.09-8.59-13.05-9.51-.94-.89-1.63-1.92-2.36-2.97-1.47-2.13-2.6-4.83-2.96-7.38-.34-2.38-.21-5.46.4-8.42.13-.64.45-1.3.18-1.89-.71-1.55-3.13-1.14-4.47-1.03-2.01.16-4,.59-5.97,1.02-.64.14-1.31.3-1.78.76-.45.44-.62,1.09-.78,1.7-.25.93-.52,1.85-.82,2.76-.21.63-.48,1.32-1.09,1.61-.59.28-1.34.04-1.79-.44-.45-.48-.63-1.15-.68-1.81-.04-.66.04-1.31.07-1.97.02-.63-.02-1.29-.36-1.82-.73-1.14-2.57-1.32-3.03-2.6-.25-.68.03-1.48.56-1.98.53-.5,1.26-.74,1.98-.81s1.38-.05,2.16-.03l.38-1.52c-1.88-.17-3.33-.1-5.04.63-.91.39-1.93,1.24-2.31,2.18-.67,1.65-.27,3.02-.18,3.78.32,2.91-.22,4.47-.68,7.36Z"/>
            <path class="cls-11" d="m138.5,255.8c-.23,1.47-.57,2.91-1,4.34-1.19,3.91-3.15,7.93-2.33,12.97,1.35,2.41,4.18,3.32,6.3,4.27,2.85,1.27,4.9,2.1,6.94,4.57,3.66,4.43,7.16,10.02,18.23,11.46,11.07,1.44,19.13-2.59,20.94-5.84,1.81-3.24-.23-6.05-7.49-9.36-3.68-1.68-12.09-8.59-13.05-9.51-.94-.89-1.63-1.92-2.36-2.97-1.47-2.13-2.6-4.83-2.96-7.38-.34-2.38-.21-5.46.4-8.42.13-.64.45-1.3.18-1.89-.71-1.55-3.13-1.14-4.47-1.03-2.01.16-4,.59-5.97,1.02-.64.14-1.31.3-1.78.76-.45.44-.62,1.09-.78,1.7-.25.93-.52,1.85-.82,2.76-.21.63-.48,1.32-1.09,1.61-.59.28-1.34.04-1.79-.44-.45-.48-.63-1.15-.68-1.81-.04-.66.04-1.31.07-1.97.02-.63-.02-1.29-.36-1.82-.73-1.14-2.57-1.32-3.03-2.6-.25-.68.03-1.48.56-1.98.53-.5,1.26-.74,1.98-.81s1.38-.05,2.16-.03l.38-1.52c-1.88-.17-3.33-.1-5.04.63-.91.39-1.93,1.24-2.31,2.18-.67,1.65-.27,3.02-.18,3.78.32,2.91-.22,4.47-.68,7.36Z"/>
            <path class="cls-13" d="m159.3,291.48s-.57-7.85,7.39-12.62c7.96-4.77,13.14-2.39,15.79-.74,3.15,1.96,7.74,6.18,5.36,9.63-2.58,3.73-6.97,5.71-15.37,6.37-8.4.66-13.16-2.65-13.16-2.65Z"/>
            <g>
              <path class="cls-13" d="m148.33,262.87c.29.03.59-.07.79-.3,1.09-1.18,7.76-5.21,12.8-3.14.12-.19.33-1.42-.28-1.79-6.81-1.71-12.63,2.29-13.95,3.72-.35.37-.3.95.09,1.28.16.14.35.21.55.23Z"/>
              <path class="cls-13" d="m164.04,264.76c.01-.88-.5-1.66-.81-1.88-5.74-.82-11.51,2.79-12.77,4.16-.34.37-.3.95.09,1.28.16.14.35.21.55.23.29.03.59-.07.79-.3,1.06-1.15,7.62-4.96,12.16-3.49Z"/>
              <path class="cls-13" d="m172.74,273.3c-.09-.59-1.25-1.48-2.21-1.72-6.35-.44-11.7,4.4-12.75,6-.28.43-.14.99.3,1.25.18.11.38.15.58.13.29-.02.57-.17.73-.42.93-1.42,7.34-6.84,13.36-5.24Z"/>
              <path class="cls-13" d="m154.39,274.07c.29,0,.57-.14.75-.39.93-1.29,6.5-6.17,12.23-4.69.04-.5-1.01-1.49-1.52-1.64-5.69-.51-11.18,3.79-12.27,5.3-.3.41-.19.98.24,1.26.17.12.37.17.57.16Z"/>
            </g>
          </g>
        </g>
        <g>
          <path class="cls-3" d="m89.03,260.6c-5.18-.43-7.5,0-6.93,5.52.58,5.53.63,9.77.63,9.77,0,0,9.24.66,13.63-1.56,4.39-2.22.46-13.09-7.34-13.73Z"/>
          <path class="cls-12" d="m89.03,260.6c-5.18-.43-7.5,0-6.93,5.52.58,5.53.63,9.77.63,9.77,0,0,9.24.66,13.63-1.56,4.39-2.22.46-13.09-7.34-13.73Z"/>
          <path class="cls-1" d="m88.87,284.23c-.34-.01-.68-.06-1.01-.14-2.81-.68-4.54-3.51-3.86-6.32,1.63-6.76,3.18-11.97,4.55-16.57,1.99-6.7,3.57-12,4.71-19.52,1.79-11.77-1.48-23.21-5.13-30-1.37-2.55-.42-5.72,2.13-7.09,2.54-1.37,5.72-.42,7.09,2.13,2.16,4.01,9,18.52,6.26,36.53-1.25,8.24-3,14.12-5.03,20.93-1.33,4.48-2.84,9.55-4.41,16.04-.6,2.47-2.86,4.11-5.3,4Z"/>
          <g>
            <path class="cls-1" d="m76.06,290.77s-.59,2.17-.16,3.06c.67,1.39,4.62,3.22,6.7,4.18,2.08.96,4.36,2.35,6.41,6.48,2.19,4.41,6.37,7.52,11.11,9.56,4.74,2.03,11.71,3.28,20.03,1.57,8.32-1.71,8.88-6.66,8.88-6.66,0,0,.32-4.65-1.77-5.33-2.1-.68-51.2-12.86-51.2-12.86Z"/>
            <path class="cls-3" d="m80.11,273.62c-.3,1.45-.69,2.89-1.18,4.29-1.35,3.86-3.48,7.8-2.87,12.86,1.25,2.47,4.04,3.5,6.12,4.53,2.8,1.38,4.81,2.31,6.74,4.86,3.48,4.58,6.73,10.32,17.73,12.22,11,1.9,19.22-1.78,21.17-4.95,1.95-3.17.02-6.06-7.09-9.67-3.61-1.83-11.72-9.09-12.64-10.05-.9-.93-1.55-1.99-2.23-3.07-1.38-2.19-2.39-4.94-2.64-7.5-.24-2.39.02-5.47.75-8.4.16-.63.5-1.28.26-1.88-.64-1.57-3.08-1.27-4.42-1.22-2.02.07-4.02.42-6,.77-.64.11-1.33.24-1.81.68-.47.42-.66,1.06-.85,1.66-.29.92-.6,1.82-.94,2.72-.24.62-.54,1.3-1.15,1.56-.61.26-1.34-.01-1.77-.51-.43-.5-.59-1.18-.6-1.84-.01-.66.1-1.31.15-1.96.05-.63.04-1.29-.28-1.84-.68-1.17-2.51-1.43-2.92-2.72-.22-.69.09-1.48.64-1.96.55-.48,1.29-.68,2.01-.73.72-.05,1.38,0,2.16.06l.45-1.5c-1.87-.25-3.32-.24-5.06.42-.93.35-1.98,1.16-2.4,2.08-.74,1.62-.39,3.01-.34,3.77.2,2.92-.4,4.46-.99,7.33Z"/>
            <path class="cls-11" d="m80.11,273.62c-.3,1.45-.69,2.89-1.18,4.29-1.35,3.86-3.48,7.8-2.87,12.86,1.25,2.47,4.04,3.5,6.12,4.53,2.8,1.38,4.81,2.31,6.74,4.86,3.48,4.58,6.73,10.32,17.73,12.22,11,1.9,19.22-1.78,21.17-4.95,1.95-3.17.02-6.06-7.09-9.67-3.61-1.83-11.72-9.09-12.64-10.05-.9-.93-1.55-1.99-2.23-3.07-1.38-2.19-2.39-4.94-2.64-7.5-.24-2.39.02-5.47.75-8.4.16-.63.5-1.28.26-1.88-.64-1.57-3.08-1.27-4.42-1.22-2.02.07-4.02.42-6,.77-.64.11-1.33.24-1.81.68-.47.42-.66,1.06-.85,1.66-.29.92-.6,1.82-.94,2.72-.24.62-.54,1.3-1.15,1.56-.61.26-1.34-.01-1.77-.51-.43-.5-.59-1.18-.6-1.84-.01-.66.1-1.31.15-1.96.05-.63.04-1.29-.28-1.84-.68-1.17-2.51-1.43-2.92-2.72-.22-.69.09-1.48.64-1.96.55-.48,1.29-.68,2.01-.73.72-.05,1.38,0,2.16.06l.45-1.5c-1.87-.25-3.32-.24-5.06.42-.93.35-1.98,1.16-2.4,2.08-.74,1.62-.39,3.01-.34,3.77.2,2.92-.4,4.46-.99,7.33Z"/>
            <path class="cls-13" d="m99.39,310.15s-.24-7.87,7.92-12.3c8.15-4.43,13.23-1.83,15.8-.07,3.06,2.09,7.48,6.5,4.95,9.85-2.73,3.62-7.21,5.41-15.63,5.72-8.42.31-13.04-3.2-13.04-3.2Z"/>
            <g>
              <path class="cls-13" d="m89.64,281.1c.29.04.59-.05.8-.26,1.14-1.13,7.97-4.88,12.92-2.6.13-.19.39-1.4-.2-1.8-6.74-1.99-12.72,1.76-14.1,3.13-.36.36-.34.93.04,1.28.15.14.34.22.54.25Z"/>
              <path class="cls-13" d="m105.25,283.65c.05-.88-.43-1.68-.73-1.91-5.7-1.06-11.62,2.3-12.94,3.62-.36.36-.34.93.04,1.28.15.14.34.22.54.25.29.04.59-.05.8-.26,1.11-1.1,7.82-4.63,12.29-2.97Z"/>
              <path class="cls-13" d="m113.58,292.54c-.06-.59-1.19-1.53-2.14-1.82-6.32-.7-11.88,3.9-12.99,5.46-.3.41-.18.98.25,1.26.18.11.37.16.57.16.29,0,.57-.15.75-.39.99-1.38,7.62-6.52,13.57-4.67Z"/>
              <path class="cls-13" d="m95.22,292.54c.29,0,.58-.12.77-.36.99-1.25,6.75-5.89,12.42-4.18.06-.5-.95-1.54-1.45-1.7-5.66-.75-11.33,3.32-12.48,4.78-.32.4-.23.97.19,1.27.17.12.37.18.56.19Z"/>
            </g>
          </g>
        </g>
        <path class="cls-1" d="m222.63,169.74c-5.01,0-11.25-1.75-18.17-6.48-1.7-1.17-2.14-3.49-.98-5.2,1.17-1.71,3.49-2.14,5.2-.98,9.33,6.37,15.99,5.62,18.47,4.18,1-.59,1.75-1.97,2.04-3.8.58-3.66-.63-9.63-5.78-15.45-10.89-12.31-24.56-18.63-45.71-21.15-2.05-.24-3.51-2.11-3.27-4.16.24-2.05,2.1-3.52,4.16-3.27,22.82,2.72,38.37,10,50.42,23.62,5.84,6.6,8.67,14.66,7.56,21.59-.66,4.11-2.66,7.33-5.65,9.08-2.09,1.22-4.91,2.02-8.3,2.02Z"/>
        <g>
          <path class="cls-2" d="m175.33,73.83c5.66-5.33,10.64-21,8.07-37.47-2.57-16.47-17.79-31.87-23.85-35.2-6.06-3.33-10.32.98-8.68,7.12,2.24,8.35,5.04,27.14-10.55,35.41,0,0,2.31,12.27,10.34,22.01,8.03,9.74,24.67,8.14,24.67,8.14Z"/>
          <path class="cls-13" d="m154.18,11.51c-1.37,0-2.74-.2-4-.6-.39-.13-.61-.55-.49-.94.13-.39.55-.61.94-.49,4.91,1.57,11.53-.26,13.19-5.39.13-.39.54-.61.94-.48.39.13.61.55.48.94-1.49,4.61-6.36,6.95-11.07,6.95Z"/>
          <path class="cls-13" d="m159.78,21.86c-4.2,0-7.11-1.65-8.24-2.29-.36-.2-.48-.66-.28-1.02.2-.36.66-.48,1.02-.28,2.3,1.31,5.95,2.9,11.1,1.66,6.8-1.64,8.25-5.62,8.56-7.26.08-.41.47-.67.87-.6.41.08.67.47.6.87-.36,1.92-2.03,6.6-9.68,8.44-1.42.34-2.74.48-3.95.48Z"/>
          <path class="cls-13" d="m167.53,34.82h-.06c-8.78-.02-14.22-4.41-16.69-7.02-.28-.3-.27-.77.03-1.06.3-.28.77-.27,1.06.03,2.3,2.44,7.38,6.54,15.6,6.55h.06c9.6,0,12.46-4.51,13.68-6.44.22-.35.69-.45,1.03-.23.35.22.45.68.23,1.03-1.24,1.95-4.52,7.14-14.94,7.14Z"/>
          <path class="cls-13" d="m171.45,49.87c-2.74,0-5.71-.41-8.73-1.43-7.07-2.38-12.18-6.48-15.18-12.19-.19-.37-.05-.82.31-1.01.36-.19.82-.05,1.01.31,2.85,5.43,7.54,9.18,14.34,11.47,9.38,3.16,18.32.02,20.82-2.29.3-.28.78-.26,1.06.04.28.3.26.78-.04,1.06-1.96,1.81-7.17,4.03-13.58,4.03Z"/>
          <path class="cls-14" d="m152.54,60.47c13.41-15.33,8.23-39.47,4.93-46.39-4.64-9.74-2.68-14.02,1.39-13.25-5.68-2.64-9.57,1.55-7.98,7.45,2.24,8.35,5.04,27.14-10.55,35.41,0,0,2.02,10.73,8.85,20.09,1.12-.95,2.25-2.03,3.36-3.31Z"/>
        </g>
        <g>
          <path class="cls-11" d="m187.65,164.76c-4.56-11.1-6.83-41.79-5.89-61.96,3.05-.64,6.79-4.81,5.28-10.19-1.36-4.84-2.68-5.48-6.76-10.71-2.91-3.73-4.94-8.67-7.55-12.67-8.97-13.73-20.37-22.89-37.15-26.84-2.88-.68-4.61-3.65-3.79-6.49,1.07-3.69,1.99-8.52.86-12.07-2.08-6.55-6.22-7.22-8.96-6.01-2.74,1.21-2.94,3.94-2.12,8.34.82,4.4-.47,5.17-1.94,4.7s-2.56-8.47-12.8-12.23c-10.24-3.76-17.16,1.18-16.99,5.4.19,4.61,3.54,4.97,10.65,5.74,3.02.33,6.23,1.6,8.28,3.67,2.86,2.9,1.27,7.81-2.7,8.7-26.05,5.81-46.27,27.51-51.98,56.79-.87,4.47-1.46,9.87-1.82,15.9h0s-2.61-4.9-8.21-6.28c-5.03-1.24-7.02,1.17-6.96,3.42.07,2.25,2.87,3.32,5.69,4.49,4.52,1.87,5.26,3.61,5.26,3.61,0,0-3.91-.66-7,.7-3.09,1.37-3.9,4.71-.91,5.98,1.67.71,4.22-.56,6.84-1.17,1.65-.38,4.71-.99,4.88,1,0,0,0,0,0,0-.06,4.64-.02,9.49.11,14.47.38,14.06,2.84,23.69.59,36.45-1.7,9.67-10.16,17.31-1.67,25.28,3.79,3.57,8.23,3.84,11.71,3.24,2.85-.5,5.5,1.28,6.16,4.09.94,4.01,3.85,8.89,12.03,11.05,7.55,2,12.38-.3,15.33-3.1,2.13-2.03,5.54-2.05,7.43.2,3.14,3.75,8.97,7.79,19.51,7.73,10.52-.05,15.84-4.62,18.47-8.51,1.55-2.3,4.58-3.13,6.97-1.72,4,2.37,10.43,4.27,18.45,0,5.96-3.18,7.5-8.89,7.64-13.52.09-3.04,2.84-5.41,5.84-4.95,4.6.71,9.28-.5,12.44-5.28,5.7-8.61-1.11-17.26-5.22-27.26Z"/>
          <g class="cls-16">
            <path class="cls-5" d="m42.79,116.46c4.52,1.87,5.26,3.61,5.26,3.61,0,0-3.91-.66-7,.7-3.09,1.37-3.9,4.71-.91,5.98,1.67.71,4.22-.56,6.84-1.17,1.65-.38,4.71-.99,4.88,1,0,0,0,0,0,0-.06,4.64-.02,9.49.11,14.47.38,14.06,2.84,23.69.59,36.45-1.7,9.67-10.16,17.31-1.67,25.28,1.99,1.87,4.16,2.82,6.27,3.23-.25-.14-4.23-6.53.45-15.74,6.58-12.94,6.18-21.05,4.45-47.28-2.11-32.1,1.83-45.81,13.48-68.49,11.93-23.24,30.92-24.37,38.98-30.53,4.38-3.35,2.88-9.43-.95-13.29-3.22-3.24-8.25-4.55-11.21-4.86-6.49-.67-12.52-1.8-11.3-5.04-.83,1.02-1.26,2.15-1.22,3.24.19,4.61,3.54,4.97,10.65,5.74,3.02.33,6.23,1.6,8.28,3.67,2.86,2.9,1.27,7.81-2.7,8.7-26.05,5.81-46.27,27.51-51.98,56.79-.87,4.47-1.46,9.87-1.82,15.9h0s-2.61-4.9-8.21-6.28c-5.03-1.24-7.02,1.17-6.96,3.42.07,2.25,2.87,3.32,5.69,4.49Z"/>
            <path class="cls-5" d="m75.54,210.24c-3.31-4.36-5.98-5.07-10.58-4.1,0,0-.02,0-.02,0,1.85.5,3.35,1.96,3.82,3.97.94,4.01,3.85,8.89,12.03,11.05,5.33,1.41,9.3.67,12.22-.86-11.82,2.57-14.15-5.71-17.46-10.06Z"/>
            <path class="cls-5" d="m132.33,224.48c-5.82.76-11.28-.55-17.42-5.05-6.62-4.85-9.85-4.4-13.95-2.75,0,0,0,0,0,0,.98.22,1.89.74,2.59,1.58,3.14,3.75,8.97,7.79,19.51,7.73,3.7-.02,6.75-.6,9.28-1.52Z"/>
            <path class="cls-5" d="m124.29,24.24c-.22-3.89,2.26-6.82,5.31-5.54-1.95-1.66-4.2-1.63-5.9-.88-2.74,1.21-2.94,3.94-2.12,8.34.82,4.4-.47,5.17-1.94,4.7-.22-.07-.43-.32-.66-.68h0c1.13,2.5,2.23,4.99,4.79,3.6,2.57-1.39.73-5.65.51-9.54Z"/>
          </g>
        </g>
        <g>
          <path class="cls-9" d="m99.48,113.09s1.42,6.02,8.02,5.94c6.6-.08,7.32-3.08,10.02-7.17,2.7-4.09,8.5-5.01,13.54-5.09,5.04-.08,9.75-5.8,7.05-11.59,0,0,.69,4.13-3.35,6.77-4.04,2.64-9.41.26-14.7,2.79s-5.75,8.23-9.63,10.04c-3.89,1.81-8.6.44-10.94-1.69Z"/>
          <path class="cls-1" d="m130.37,109.68c-.58,5.43-5.46,9.35-10.89,8.77-3.22-.34-5.91-2.2-7.43-4.79,2.62-2.44,3.61-6.66,8.02-8.92,3.49-1.78,6.13-.97,9.05-1.05,1,1.75,1.5,3.83,1.26,5.98Z"/>
          <path class="cls-1" d="m97.39,110.06c1.21,2.73,4,6,10.37,5.44,6.66-.58,6.12-7.61,12.3-10.76,5.65-2.88,9.12,1.02,15.05-3.02,5.35-3.65,2.32-10.86.3-12.33"/>
          <path class="cls-8" d="m127.8,108.6c-.02,1.5-1.25,2.7-2.75,2.68-1.5-.02-2.7-1.25-2.68-2.75.02-1.5,1.25-2.7,2.75-2.68,1.5.02,2.7,1.25,2.68,2.75Z"/>
        </g>
        <g>
          <path class="cls-9" d="m181.75,103.14l-.66-.34s-2.32-.16-3.64-1.38-2.8-5.21-7.02-6.24c-4.22-1.03-6.58,1.03-11.26,1.23s-6.25-3.03-7.19-5.74c-.5,4.6.81,7.68,4.14,9.03,3.7,1.5,10.39-1.65,13.25,0,2.86,1.65,4.52,5.07,8.08,5.46,2.06.23,3.44-.33,4.25-.85.01-.39.03-.78.05-1.17Z"/>
          <path class="cls-1" d="m177.45,101.42c-1.15,4.49-5.45,7.58-10.2,7.08-5.21-.57-8.98-5.25-8.41-10.46.06-.55.16-1.11.33-1.63,3.47-.09,6.64-2.5,11.26-1.23,4.07,1.12,4.34,4.34,7.02,6.24Z"/>
          <path class="cls-1" d="m152.16,87.56c-.95,2.64.31,6.09,3.02,7.73,5.38,3.25,8.95-1.84,15.24-.11,4.72,1.3,4.33,5.39,8.48,7.03.8.32,2.18,2.04,2.84.93"/>
          <path class="cls-8" d="m173.34,100.91c-.02,1.4-1.17,2.52-2.57,2.5s-2.52-1.17-2.5-2.57,1.17-2.52,2.57-2.5c1.4.02,2.52,1.17,2.5,2.57Z"/>
        </g>
        <g>
          <path class="cls-1" d="m143.45,121.98c-12.81,5.73-24.06,17.06-29.26,29.55-3.21,7.7-1.46,14.1,2.84,15.56,8.47,2.86,17.98-10.35,27.43-14.96,9.36-4.56,17.15-.15,21.94-3.25,5.64-3.64,4.82-12.91,1.79-19.54-3.38-7.39-11.92-13.09-24.73-7.36Z"/>
          <path class="cls-7" d="m166.07,149.05c-4.7-16.32-20.02-21.41-35.58-18.95-7.13,5.89-12.97,13.41-16.31,21.43-3.21,7.7-1.46,14.1,2.84,15.56,8.47,2.86,17.98-10.35,27.43-14.96,9.15-4.46,16.8-.36,21.62-3.07Z"/>
          <path class="cls-15" d="m155.95,149.91c-15.73-4.23-25.89,9.29-30.86,9.17-4.98-.13-7.38-4.47-.48-15.51,6.83-10.94,21.7-14.04,28.16-10.82-6.44-3.18-14.32-3.91-22.27-2.65-7.13,5.89-12.97,13.41-16.31,21.43-3.21,7.7-1.46,14.1,2.84,15.56,8.47,2.86,17.98-10.35,27.43-14.96,4.19-2.05,8.07-2.29,11.5-2.22Z"/>
          <g>
            <path class="cls-8" d="m161.99,134.28c-3.04,1.32-3,5.35-5.5,13.91-.18.6-.35,1.17-.51,1.73,4.22.1,7.77.67,10.41-1.04.54-.35,1.01-.76,1.44-1.21.61-6.5-2.64-14.78-5.85-13.39Z"/>
            <path class="cls-6" d="m167.83,147.67c.07-.75.09-1.53.06-2.32-.82,1.05-2.1,2.07-3.53,2.35-2.3.45-4.87,0-4.87,0,0,0,.79-5.01,1.58-9.31.52-2.89,2.25-4.14,3.63-3.14-.84-.95-1.78-1.38-2.71-.97-3.04,1.32-3,5.35-5.5,13.91-.18.6-.35,1.17-.51,1.73,4.22.1,7.77.67,10.41-1.04.54-.35,1.01-.76,1.44-1.21Z"/>
          </g>
          <g>
            <path class="cls-8" d="m129.46,144.92c-3.04,1.32-2.99,5.35-5.5,13.91-1.09,3.75-2.03,6.5-2.76,8.48,4.52-.87,9.27-4.94,14.09-8.85h0c.68-6.52-2.6-14.95-5.84-13.55Z"/>
            <path class="cls-6" d="m135.3,158.47c.11-1.04.11-2.13.03-3.22-4.79,3.11-7.67,6.43-8.43,6.02-.76-.41-.11-3.78.22-7.49.4-4.47.95-9.1,3.92-8.78-.52-.25-1.05-.3-1.58-.07-3.04,1.32-2.99,5.35-5.5,13.91-1.09,3.75-2.03,6.5-2.76,8.48,4.52-.87,9.27-4.94,14.09-8.85h0Z"/>
          </g>
        </g>
        <g>
          <path class="cls-1" d="m25.06,200.54c-.39,0-.79-.06-1.19-.2-1.96-.66-3.01-2.78-2.36-4.73,9.96-29.69,24.59-42.23,44.97-52.86,1.83-.96,4.09-.24,5.04,1.59.96,1.83.24,4.09-1.59,5.04-19.21,10.01-32.14,21.18-41.33,48.6-.52,1.56-1.98,2.55-3.55,2.55Z"/>
          <path class="cls-1" d="m22.42,192.94c-1.57,4.07-3.96,5.71-6.24,8.11-2.28,2.39-4.74,3.86-7.12,7.61-2.38,3.75-3.5,10.1-2.79,13.07.4,1.68,2.73,1.7,2.86.22.51-5.46,1.41-10.17,5.25-13.1,0,0-2.6,5.27-2.94,10.09-.34,4.81.29,10.55,2.28,10.83,1.99.29,1.91-1.75,1.64-4.64-.28-2.89-.54-10.54,3.31-16,0,0-1.37,8.06,0,13.2,1.37,5.14,4.04,8.83,5.52,8.2,1.48-.63,1.41-1.61-.19-5.57-1.24-3.07-1.18-6.96-.86-10.26.32-3.36,1.09-5.71,3.35-8.06.98-1.02,2.02-1.59,2.85-1.83.93-.27,2.54.27,3.4,1.11,1.39,1.35,2.61,3.06,2.99,5.87.35,2.59,4.63,2.83,3.04-4.45-1.59-7.28-10.55-8.55-8.3-14.49l-8.02.1Z"/>
        </g>
        <path class="cls-1" d="m208.6,165.72l3.41-6.6c-5.29-2.76.76-10.89-2.3-17.68s-6.35-4.05-5.09-1.76c1.37,2.48,1.63,4.63,1.1,6.49-.51,1.81-1.69,2.86-2.94,1.8-1.25-1.07-2.04-4.6-6.62-8.48-4.15-3.52-8.08-4.21-9.79-4.21-3.57,0-2.32,2.48-.6,3.17,7.38,2.96,8.3,4.6,10.15,7.01,1.86,2.41,1.61,3.8.65,3.52s-2.42-2.38-6.93-4.45-9.49-2.05-10.28-1.11c-.79.94-.69,2.17,1.45,2.68,2.14.51,6.67,1.64,9.13,3.06,3.14,1.81,4.58,4.15,4.06,4.84-.52.69-3.2-1.22-7.29-1.97-4.09-.75-6.19-.75-7.89-.09-1.26.49-.81,3.02,2.95,3.19,3.03.14,7.98,1.61,10.74,3.49,1.54,1.05,3.58,2.48,6.23,3.63,2.9,1.26,4.65,1.8,9.86,3.48Z"/>
        <g>
          <path class="cls-2" d="m86.22,65.94c4.32,2.26,11.26,14.07,2.76,26.63-8.5,12.56-20.55,12.11-26.07,11.15-3.45-1.68-21.51-9.51-22.4-34.48-.89-24.98,14.48-34.53,18.33-36.75s11.51-2.88,10.56,5.67c-.94,8.56-1.85,16.14,4.37,21.64,4.87,4.31,12.46,6.13,12.46,6.13Z"/>
          <path class="cls-13" d="m53.86,98.41c-.71,0-1.33-.03-1.81-.09-.41-.04-.71-.41-.66-.82.04-.41.42-.7.82-.66,3.75.4,15.22-.44,23.13-9.07,8.11-8.84,8.43-17.45,7.27-23.12-.08-.4.18-.8.58-.88.4-.08.8.18.88.58,1.23,6.01.9,15.12-7.63,24.43-7.31,7.97-17.51,9.63-22.58,9.63Z"/>
          <path class="cls-13" d="m49.28,81.93c-4.53,0-7.88-.73-8.16-.79-.4-.09-.66-.49-.57-.89.09-.4.49-.66.89-.57.57.13,13.97,3.04,23.58-3.41,8.7-5.83,9.46-12.88,9.78-15.88.04-.41.43-.7.82-.66.41.04.71.41.66.82-.32,2.94-1.16,10.74-10.43,16.96-5.29,3.55-11.64,4.42-16.58,4.42Z"/>
          <path class="cls-13" d="m52.85,62.01c-6.45,0-10.66-2.03-12.8-3.43-.34-.23-.44-.69-.21-1.04.23-.35.69-.44,1.04-.22,2.49,1.63,7.99,4.16,16.9,2.8,7.04-1.08,10.08-3.34,12.33-5.62.29-.3.76-.3,1.06,0,.3.29.3.76,0,1.06-2.43,2.47-5.7,4.91-13.17,6.05-1.85.28-3.57.41-5.15.41Z"/>
          <path class="cls-13" d="m60.7,47.6c-1.4,0-2.9-.18-4.51-.6-3.95-1.03-6.91-3.3-8.54-6.55-.18-.37-.04-.82.33-1,.37-.19.82-.04,1.01.33,1.45,2.9,4,4.84,7.58,5.77,5.57,1.45,9.79-.27,12.35-1.97.34-.23.81-.14,1.04.21.23.34.14.81-.21,1.04-2.07,1.38-5.13,2.77-9.04,2.77Z"/>
          <path class="cls-14" d="m72.66,94.81c-5.45-.5-12.28-2.04-18.18-11.1-5.91-9.06-7.74-27.92-2.35-39.29,3.55-7.48,10.64-14.33,15.75-12.04-2.28-2.13-6.5-1.36-9.05.11-3.85,2.21-19.22,11.77-18.33,36.75s18.95,32.81,22.4,34.48c5.53.95,17.57,1.41,26.07-11.15,5.69-8.41,4.46-16.48,1.73-21.58h0c4.27,13.4-9.94,24.56-18.04,23.82Z"/>
        </g>
        <path class="cls-13" d="m83.84,92.23s-6.42,7.08-6.48,13.9c-.03,3.45,2.46,6.61,6.48,6.61s6.51-3.16,6.48-6.61c-.06-6.81-6.48-13.9-6.48-13.9Z"/>
      </g>
    </g>
  </g>
</svg>