<?xml version="1.0" encoding="UTF-8"?>
<svg id="Layer_2" data-name="Layer 2" xmlns="http://www.w3.org/2000/svg" viewBox="0 0 423.99 490.38">
  <defs>
    <style>
      .cls-1 {
        fill: #343535;
      }

      .cls-1, .cls-2, .cls-3, .cls-4, .cls-5, .cls-6, .cls-7, .cls-8, .cls-9, .cls-10, .cls-11, .cls-12, .cls-13, .cls-14, .cls-15, .cls-16, .cls-17, .cls-18 {
        stroke-width: 0px;
      }

      .cls-2 {
        fill: #fab376;
      }

      .cls-3 {
        fill: #fde8d8;
      }

      .cls-4 {
        fill: #262626;
      }

      .cls-5 {
        opacity: .14;
      }

      .cls-5, .cls-8 {
        fill: #1f2121;
      }

      .cls-6 {
        fill: #e0e0e0;
      }

      .cls-7 {
        fill: #3d3d40;
      }

      .cls-9 {
        fill: #e78835;
      }

      .cls-10 {
        fill: #373737;
      }

      .cls-11 {
        fill: #455b64;
      }

      .cls-12 {
        fill: #263238;
      }

      .cls-13 {
        fill: #f89e49;
      }

      .cls-14 {
        fill: #d67b2f;
      }

      .cls-15 {
        fill: #fafbfb;
      }

      .cls-16 {
        fill: #edd0bd;
      }

      .cls-17 {
        opacity: .1;
      }

      .cls-18 {
        fill: #4a4a4c;
      }
    </style>
  </defs>
  <g id="Layer_1-2" data-name="Layer 1">
    <g>
      <path id="Shadow" class="cls-5" d="m421.94,345.07l-161.94-93.21c-2.73-1.58-7.17-1.58-9.9,0L10.36,390.27c-2.73,1.58-2.73,4.14,0,5.72l161.93,93.21c2.73,1.58,7.17,1.58,9.9,0l239.74-138.42c2.73-1.58,2.73-4.14,0-5.72Z"/>
      <g id="Cargo_Car" data-name="Cargo Car">
        <path class="cls-10" d="m273.11,13.95l96.23,55.58c6.83,3.94,12.42,13.62,12.42,21.51v189.94l8.17,4.72V90.31c0-11.13-7.89-24.8-17.53-30.36L272.74,2.38c-9.64-5.57-17.53-1.01-17.53,10.12v195.39l8.22,4.75V19.54c0-6.15,4.36-8.66,9.68-5.59Z"/>
        <g>
          <path class="cls-9" d="m198.88,438.4c0-10.01,7.03-22.19,15.7-27.2,4.55-2.63,8.63-2.73,11.5-.81h0l10.59,6.05-22.52,38.27-10.5-6.04v-.03c-2.93-1.59-4.77-5.13-4.77-10.24Z"/>
          <path class="cls-13" d="m225.58,417.53c-8.67,5.01-15.7,17.18-15.7,27.2,0,10.01,7.03,14.07,15.7,9.07,8.67-5.01,15.7-17.18,15.7-27.2s-7.03-14.07-15.7-9.07Z"/>
          <path class="cls-12" d="m230.89,432.6c0-3.91-2.38-5.71-5.32-4.02-2.94,1.69-5.31,6.24-5.31,10.16s2.38,5.71,5.31,4.02c2.94-1.69,5.32-6.24,5.32-10.16Z"/>
          <path class="cls-7" d="m207.18,400.83s0,17.92,8.55,24.26c1.61,1.19,3.32,2.02,4.33,2.86,2.18,1.81.74,5.15-1.91,6.57-3.85,2.06-24.81-3.52-33.69-20.56l22.73-13.12Z"/>
          <path class="cls-18" d="m215.31,405.5s0,17.92,8.55,24.26c1.61,1.19,3.32,2.02,4.33,2.86,2.18,1.81.74,5.15-1.91,6.57-3.85,2.06-24.81-3.52-33.69-20.56l22.73-13.12Z"/>
          <path class="cls-12" d="m225.58,433.93c-.83.48-1.51,1.65-1.51,2.61s.67,1.35,1.51.87c.83-.48,1.51-1.65,1.51-2.61s-.67-1.35-1.51-.87Z"/>
        </g>
        <g>
          <path class="cls-9" d="m369.36,339.97c0-10.01,7.03-22.19,15.7-27.2,4.55-2.63,8.63-2.73,11.5-.81h0l10.59,6.05-22.52,38.27-10.5-6.04v-.03c-2.93-1.6-4.77-5.13-4.77-10.24Z"/>
          <path class="cls-13" d="m396.05,319.11c-8.67,5.01-15.7,17.18-15.7,27.2,0,10.01,7.03,14.07,15.7,9.07,8.67-5.01,15.7-17.18,15.7-27.2s-7.03-14.07-15.7-9.07Z"/>
          <path class="cls-12" d="m401.37,334.17c0-3.91-2.38-5.71-5.32-4.02-2.94,1.69-5.31,6.24-5.31,10.16s2.38,5.71,5.31,4.02c2.94-1.69,5.32-6.24,5.32-10.16Z"/>
          <path class="cls-7" d="m377.65,302.4s0,17.92,8.55,24.26c1.61,1.19,3.32,2.02,4.33,2.86,2.18,1.81.74,5.15-1.91,6.57-3.85,2.06-24.81-3.52-33.69-20.56l22.73-13.12Z"/>
          <path class="cls-18" d="m385.78,307.08s0,17.92,8.55,24.26c1.61,1.19,3.32,2.02,4.33,2.86,2.18,1.81.74,5.15-1.91,6.57-3.85,2.06-24.81-3.52-33.69-20.56l22.73-13.12Z"/>
          <path class="cls-12" d="m396.05,335.5c-.83.48-1.51,1.65-1.51,2.61s.67,1.35,1.51.87c.83-.48,1.51-1.65,1.51-2.61s-.67-1.35-1.51-.87Z"/>
        </g>
        <g>
          <polygon class="cls-1" points="398.15 290.44 246.98 203.14 0 345.74 151.16 433.04 398.15 290.44"/>
          <polygon class="cls-8" points="398.15 290.44 398.15 299.94 151.16 442.54 151.16 433.04 398.15 290.44"/>
          <polygon class="cls-4" points="0 345.74 0 355.23 151.16 442.54 151.16 433.04 0 345.74"/>
        </g>
      </g>
      <g id="Box">
        <polygon id="Shadow-2" data-name="Shadow" class="cls-17" points="376.18 290.85 246.52 365.74 114.29 289.5 244.3 214.81 376.18 290.85"/>
        <g id="Box-2" data-name="Box">
          <polygon class="cls-2" points="371.77 201.81 253.03 133.14 127.54 205.77 246.28 274.44 371.77 201.81"/>
          <polygon class="cls-13" points="246.28 357.45 371.77 284.82 371.77 201.81 246.28 274.44 246.28 357.45"/>
          <g>
            <g>
              <path class="cls-11" d="m260.13,329.92c-.39,0-.75-.1-1.08-.29-.86-.5-1.35-1.58-1.35-2.98v-9.46l.45.08,6.9-4.05v9.83c0,2.5-1.49,5.32-3.4,6.42-.52.3-1.04.45-1.52.45Zm-1.32-11.41v8.14c0,.99.29,1.73.8,2.02.5.29,1.09.07,1.49-.16,1.54-.89,2.84-3.39,2.84-5.46v-.72h-2.55l-.5-3.45-2.08-.37Zm3.54,2.71h1.6v-6.07l-4.11,2.42,2.04.36.48,3.29Z"/>
              <path class="cls-11" d="m261.37,336.93c-.31,0-.55-.25-.55-.55v-7.39c0-.31.25-.55.55-.55s.55.25.55.55v7.39c0,.31-.25.55-.55.55Z"/>
              <path class="cls-11" d="m258.16,338.78c-.19,0-.38-.1-.48-.28-.15-.26-.06-.6.2-.75l6.42-3.71c.26-.16.6-.07.75.2.15.26.06.6-.2.75l-6.42,3.71c-.09.05-.18.07-.28.07Z"/>
            </g>
            <g>
              <path class="cls-11" d="m281.04,326.06c-.22,0-.42-.05-.6-.16-.42-.24-.66-.73-.66-1.33v-1.52c0-.31.25-.55.55-.55s.55.25.55.55v1.52c0,.23.06.35.11.37.04.02.17.01.36-.09.49-.29,1.03-1.39,1.03-2.5v-9.83c0-.31.25-.55.55-.55s.55.25.55.55v9.83c0,1.44-.67,2.92-1.57,3.45-.29.17-.59.26-.87.26Z"/>
              <path class="cls-11" d="m275.22,317.47v-.96c0-4.51,3.17-10,7.07-12.25,2-1.15,3.9-1.32,5.36-.48,1.46.84,2.27,2.58,2.27,4.88v.32l-14.7,8.49Zm10.38-13.11c-.84,0-1.77.29-2.76.86-3.31,1.91-6.06,6.37-6.47,10.31l12.43-7.18c-.06-1.73-.67-3-1.71-3.61-.44-.25-.94-.38-1.49-.38Z"/>
            </g>
            <g>
              <g>
                <path class="cls-11" d="m300.9,314.73c-.31,0-.55-.25-.55-.55v-18.82c0-.31.25-.55.55-.55s.55.25.55.55v18.82c0,.31-.25.55-.55.55Z"/>
                <path class="cls-11" d="m299.28,299.65c-.07,0-.15-.01-.22-.05-.28-.12-.41-.45-.29-.73l1.97-4.55,2.19,2.53c.2.23.18.58-.05.78-.24.2-.58.17-.78-.06l-1.04-1.2-1.27,2.93c-.09.21-.29.33-.51.33Z"/>
              </g>
              <g>
                <path class="cls-11" d="m306.02,311.82c-.31,0-.55-.25-.55-.55v-18.82c0-.31.25-.55.55-.55s.55.25.55.55v18.82c0,.31-.25.55-.55.55Z"/>
                <path class="cls-11" d="m304.4,296.74c-.07,0-.15-.01-.22-.05-.28-.12-.41-.45-.29-.73l1.97-4.55,2.19,2.53c.2.23.18.58-.05.78-.24.2-.58.18-.78-.06l-1.04-1.2-1.27,2.93c-.09.21-.29.33-.51.33Z"/>
              </g>
            </g>
          </g>
          <polygon class="cls-13" points="246.28 357.45 127.54 288.78 127.54 205.77 246.28 274.44 246.28 357.45"/>
          <g>
            <polygon class="cls-16" points="177.39 247.16 185.51 251.85 185.51 239.24 177.39 234.55 177.39 247.16"/>
            <polygon class="cls-3" points="185.51 239.24 311.01 166.61 302.88 161.92 177.39 234.55 185.51 239.24"/>
            <polygon class="cls-16" points="181.07 232.41 189.19 237.1 193.73 234.49 185.6 229.79 181.07 232.41"/>
          </g>
          <g>
            <path class="cls-15" d="m311.32,177.2l-33.24,19.15c-.6.35-.44,1,.36,1.47l37.53,21.67c.8.46,1.94.56,2.54.21l33.25-19.16c.6-.35.44-1-.36-1.47l-37.54-21.66c-.8-.46-1.94-.56-2.54-.21Z"/>
            <g>
              <path class="cls-6" d="m328.11,209.79c.24,0,.47-.12.59-.34.19-.33.08-.75-.25-.94l-31.16-17.99c-.33-.19-.75-.08-.94.25-.19.33-.08.75.25.94l31.16,17.99c.11.06.23.09.34.09Z"/>
              <path class="cls-6" d="m324.65,211.77c.24,0,.47-.12.59-.34.19-.33.08-.75-.25-.94l-31.16-17.99c-.33-.19-.75-.08-.94.25-.19.33-.08.75.25.94l31.16,17.99c.11.06.23.09.34.09Z"/>
              <path class="cls-6" d="m321.2,213.75c.24,0,.47-.12.59-.34.19-.33.08-.75-.25-.94l-31.16-17.99c-.33-.19-.75-.08-.94.25-.19.33-.08.75.25.94l31.16,17.99c.11.06.23.09.34.09Z"/>
              <path class="cls-6" d="m317.74,215.73c.24,0,.47-.12.59-.34.19-.33.08-.75-.25-.94l-31.16-17.99c-.33-.19-.75-.08-.94.25-.19.33-.08.75.25.94l31.16,17.99c.11.06.23.09.34.09Z"/>
            </g>
            <g>
              <polygon class="cls-11" points="348.62 199.67 347.41 198.97 333.22 207.16 334.43 207.86 348.62 199.67"/>
              <polygon class="cls-11" points="343.69 196.82 341.59 195.62 327.39 203.81 329.5 205.01 343.69 196.82"/>
              <polygon class="cls-11" points="338.76 193.97 337.54 193.27 323.35 201.46 324.56 202.16 338.76 193.97"/>
              <polygon class="cls-11" points="335.06 191.81 332.61 190.42 318.42 198.62 320.87 200 335.06 191.81"/>
              <polygon class="cls-11" points="328.89 188.27 327.68 187.57 313.49 195.77 314.7 196.47 328.89 188.27"/>
              <polygon class="cls-11" points="325.37 186.2 322.75 184.72 308.56 192.92 311.18 194.4 325.37 186.2"/>
              <polygon class="cls-11" points="319.03 182.57 317.82 181.88 303.62 190.07 304.84 190.77 319.03 182.57"/>
              <polygon class="cls-11" points="316.23 180.94 315.62 180.59 301.43 188.79 302.04 189.14 316.23 180.94"/>
              <polygon class="cls-11" points="321.21 183.91 320.6 183.56 306.41 191.76 307.01 192.11 321.21 183.91"/>
              <polygon class="cls-11" points="331.2 189.62 330.59 189.27 316.4 197.46 317 197.81 331.2 189.62"/>
              <polygon class="cls-11" points="336.63 192.77 336.02 192.42 321.83 200.61 322.43 200.96 336.63 192.77"/>
              <polygon class="cls-11" points="340.47 195.06 339.87 194.71 325.67 202.91 326.28 203.26 340.47 195.06"/>
              <polygon class="cls-11" points="345.87 198.06 345.27 197.71 331.08 205.91 331.68 206.26 345.87 198.06"/>
              <polygon class="cls-11" points="314.1 179.73 312.88 179.03 298.69 187.22 299.9 187.92 314.1 179.73"/>
            </g>
          </g>
          <g>
            <path class="cls-15" d="m333.21,276.56v20.82c0,.8.56,1.13,1.26.73l32.5-18.76c.69-.4,1.26-1.38,1.26-2.18v-20.83c0-.8-.56-1.13-1.26-.73l-32.5,18.78c-.69.4-1.26,1.38-1.26,2.18Z"/>
            <g>
              <polygon class="cls-11" points="366.22 258.59 365.17 259.2 365.17 278.12 366.22 277.52 366.22 258.59"/>
              <polygon class="cls-11" points="361.94 261.06 360.13 262.12 360.13 281.04 361.94 279.98 361.94 261.06"/>
              <polygon class="cls-11" points="357.67 263.52 356.62 264.13 356.62 283.05 357.67 282.45 357.67 263.52"/>
              <polygon class="cls-11" points="354.45 265.35 352.35 266.59 352.35 285.52 354.45 284.27 354.45 265.35"/>
              <polygon class="cls-11" points="349.13 268.45 348.08 269.06 348.08 287.98 349.13 287.38 349.13 268.45"/>
              <polygon class="cls-11" points="346.05 270.19 343.81 271.52 343.81 290.45 346.05 289.11 346.05 270.19"/>
              <polygon class="cls-11" points="340.58 273.38 339.53 273.99 339.53 292.91 340.58 292.31 340.58 273.38"/>
              <polygon class="cls-11" points="338.15 274.77 337.62 275.07 337.62 294 338.15 293.69 338.15 274.77"/>
              <polygon class="cls-11" points="342.53 272.35 342.01 272.65 342.01 291.58 342.53 291.28 342.53 272.35"/>
              <polygon class="cls-11" points="351.14 267.31 350.61 267.61 350.61 286.54 351.14 286.24 351.14 267.31"/>
              <polygon class="cls-11" points="355.85 264.61 355.32 264.91 355.32 283.83 355.85 283.53 355.85 264.61"/>
              <polygon class="cls-11" points="359.23 262.74 358.71 263.04 358.71 281.97 359.23 281.66 359.23 262.74"/>
              <polygon class="cls-11" points="363.82 259.95 363.3 260.25 363.3 279.18 363.82 278.88 363.82 259.95"/>
              <polygon class="cls-11" points="336.31 275.85 335.26 276.45 335.26 295.38 336.31 294.77 336.31 275.85"/>
            </g>
          </g>
        </g>
      </g>
      <g id="Box-3" data-name="Box">
        <polygon id="Shadow-3" data-name="Shadow" class="cls-17" points="363.69 200.06 248.49 266.64 126.63 196.13 241.83 129.55 363.69 200.06"/>
        <g id="Box-4" data-name="Box">
          <polygon class="cls-2" points="123.45 105.97 233.97 42.05 359.03 114.4 248.51 178.33 123.45 105.97"/>
          <g>
            <path class="cls-15" d="m176.43,83.33l33.24,19.15c.6.35.44,1-.36,1.47l-37.53,21.67c-.8.46-1.94.56-2.54.21l-33.25-19.16c-.6-.35-.44-1,.36-1.47l37.54-21.66c.8-.46,1.94-.56,2.54-.21Z"/>
            <g>
              <path class="cls-6" d="m159.64,115.92c-.24,0-.47-.12-.59-.34-.19-.33-.08-.75.25-.94l31.16-17.99c.33-.19.75-.08.94.25.19.33.08.75-.25.94l-31.16,17.99c-.11.06-.23.09-.34.09Z"/>
              <path class="cls-6" d="m163.1,117.9c-.24,0-.47-.12-.59-.34-.19-.33-.08-.75.25-.94l31.16-17.99c.33-.19.75-.08.94.25.19.33.08.75-.25.94l-31.16,17.99c-.11.06-.23.09-.34.09Z"/>
              <path class="cls-6" d="m166.56,119.88c-.24,0-.47-.12-.59-.34-.19-.33-.08-.75.25-.94l31.16-17.99c.33-.19.75-.08.94.25.19.33.08.75-.25.94l-31.16,17.99c-.11.06-.23.09-.34.09Z"/>
              <path class="cls-6" d="m170.02,121.86c-.24,0-.47-.12-.59-.34-.19-.33-.08-.75.25-.94l31.16-17.99c.33-.19.75-.08.94.25.19.33.08.75-.25.94l-31.16,17.99c-.11.06-.23.09-.34.09Z"/>
            </g>
            <g>
              <polygon class="cls-11" points="139.13 105.8 140.34 105.1 154.54 113.29 153.32 113.99 139.13 105.8"/>
              <polygon class="cls-11" points="144.06 102.95 146.17 101.75 160.36 109.95 158.26 111.14 144.06 102.95"/>
              <polygon class="cls-11" points="149 100.1 150.21 99.4 164.4 107.6 163.19 108.29 149 100.1"/>
              <polygon class="cls-11" points="152.69 97.94 155.14 96.55 169.33 104.75 166.88 106.13 152.69 97.94"/>
              <polygon class="cls-11" points="158.86 94.4 160.07 93.7 174.26 101.9 173.05 102.6 158.86 94.4"/>
              <polygon class="cls-11" points="162.38 92.34 165 90.85 179.2 99.05 176.58 100.53 162.38 92.34"/>
              <polygon class="cls-11" points="168.72 88.71 169.94 88.01 184.13 96.2 182.92 96.9 168.72 88.71"/>
              <polygon class="cls-11" points="171.52 87.07 172.13 86.72 186.32 94.92 185.72 95.27 171.52 87.07"/>
              <polygon class="cls-11" points="166.54 90.04 167.15 89.69 181.34 97.89 180.74 98.24 166.54 90.04"/>
              <polygon class="cls-11" points="156.55 95.75 157.16 95.4 171.35 103.6 170.75 103.95 156.55 95.75"/>
              <polygon class="cls-11" points="151.12 98.9 151.73 98.55 165.92 106.74 165.32 107.09 151.12 98.9"/>
              <polygon class="cls-11" points="147.28 101.19 147.89 100.84 162.08 109.04 161.47 109.39 147.28 101.19"/>
              <polygon class="cls-11" points="141.88 104.19 142.48 103.84 156.68 112.04 156.07 112.39 141.88 104.19"/>
              <polygon class="cls-11" points="173.66 85.86 174.87 85.16 189.06 93.35 187.85 94.05 173.66 85.86"/>
            </g>
          </g>
          <polygon class="cls-13" points="248.51 261.34 123.45 188.98 123.45 105.97 248.51 178.33 248.51 261.34"/>
          <polygon class="cls-9" points="248.51 261.34 359.03 197.41 359.03 114.4 248.51 178.33 248.51 261.34"/>
          <g>
            <polygon class="cls-16" points="309.18 155.8 301.05 160.49 301.05 147.88 309.18 143.19 309.18 155.8"/>
            <polygon class="cls-3" points="301.05 147.88 175.99 75.52 184.12 70.83 309.18 143.19 301.05 147.88"/>
          </g>
          <g>
            <g>
              <path class="cls-11" d="m202.68,221.63c-1.63-.94-2.9-3.35-2.9-5.49v-8.4l5.89,3.46.38-.07v.56h0v7.53c0,1.2-.42,2.13-1.15,2.55-.28.16-.59.24-.92.24-.41,0-.86-.13-1.3-.39Zm.66-9.05l-.43,2.95h-2.18v.62c0,1.77,1.11,3.91,2.43,4.67.35.2.85.39,1.28.14.43-.25.68-.88.68-1.73v-6.96l-1.77.32Zm-.84-.81l1.74-.31-3.52-2.07v5.19h1.36l.41-2.81Z"/>
              <path class="cls-11" d="m202.92,228.01c.26,0,.47-.21.47-.47v-6.31c0-.26-.21-.47-.47-.47s-.47.21-.47.47v6.31c0,.26.21.47.47.47Z"/>
              <path class="cls-11" d="m205.66,229.59c.16,0,.32-.08.41-.24.13-.23.05-.51-.17-.65l-5.49-3.17c-.22-.14-.51-.06-.65.17-.13.23-.05.51.17.64l5.49,3.17c.07.04.16.06.24.06Z"/>
            </g>
            <g>
              <path class="cls-11" d="m222.11,239.35c.18,0,.36-.04.52-.13.36-.21.57-.62.57-1.14v-1.29c0-.26-.21-.47-.47-.47s-.47.21-.47.47v1.29c0,.19-.05.3-.09.32-.04.02-.15.01-.31-.08-.42-.25-.88-1.18-.88-2.14v-8.4c0-.26-.21-.47-.47-.47s-.47.21-.47.47v8.4c0,1.23.58,2.5,1.34,2.95.25.15.5.22.74.22Z"/>
              <path class="cls-11" d="m214.52,224.75v-.27c0-1.97.69-3.45,1.94-4.17,1.25-.72,2.88-.58,4.58.41,3.33,1.92,6.04,6.62,6.04,10.47v.82l-12.56-7.26Zm2.41-3.62c-.89.51-1.41,1.6-1.46,3.08l10.62,6.13c-.35-3.37-2.7-7.17-5.53-8.81-.84-.49-1.64-.73-2.36-.73-.47,0-.9.11-1.28.33Z"/>
            </g>
            <g>
              <g>
                <path class="cls-11" d="m241.11,249.95c.26,0,.47-.21.47-.47v-16.08c0-.26-.21-.47-.47-.47s-.47.21-.47.47v16.08c0,.26.21.47.47.47Z"/>
                <path class="cls-11" d="m242.49,237.06c.06,0,.13-.01.19-.04.24-.1.35-.38.25-.62l-1.68-3.88-1.88,2.17c-.17.2-.15.49.05.67.2.17.5.15.67-.05l.89-1.03,1.09,2.51c.08.18.25.28.43.28Z"/>
              </g>
              <g>
                <path class="cls-11" d="m236.73,247.46c.26,0,.47-.21.47-.47v-16.08c0-.26-.21-.47-.47-.47s-.47.21-.47.47v16.08c0,.26.21.47.47.47Z"/>
                <path class="cls-11" d="m238.12,234.57c.06,0,.13-.01.19-.04.24-.1.35-.38.25-.62l-1.68-3.88-1.88,2.17c-.17.2-.15.49.05.67.2.17.5.15.67-.05l.89-1.03,1.09,2.51c.08.18.25.28.43.28Z"/>
              </g>
            </g>
          </g>
          <g>
            <path class="cls-15" d="m161.65,181.46v20.82c0,.8-.56,1.13-1.26.73l-32.5-18.76c-.69-.4-1.26-1.38-1.26-2.18v-20.83c0-.8.56-1.13,1.26-.73l32.5,18.78c.69.4,1.26,1.38,1.26,2.18Z"/>
            <g>
              <polygon class="cls-11" points="128.64 163.49 129.69 164.1 129.69 183.02 128.64 182.42 128.64 163.49"/>
              <polygon class="cls-11" points="132.91 165.96 134.72 167.02 134.72 185.94 132.91 184.88 132.91 165.96"/>
              <polygon class="cls-11" points="137.19 168.42 138.24 169.03 138.24 187.95 137.19 187.35 137.19 168.42"/>
              <polygon class="cls-11" points="140.41 170.25 142.51 171.49 142.51 190.42 140.41 189.17 140.41 170.25"/>
              <polygon class="cls-11" points="145.73 173.35 146.78 173.96 146.78 192.88 145.73 192.28 145.73 173.35"/>
              <polygon class="cls-11" points="148.81 175.09 151.05 176.42 151.05 195.35 148.81 194.01 148.81 175.09"/>
              <polygon class="cls-11" points="154.28 178.28 155.32 178.89 155.32 197.81 154.27 197.21 154.28 178.28"/>
              <polygon class="cls-11" points="156.71 179.67 157.24 179.97 157.24 198.9 156.71 198.59 156.71 179.67"/>
              <polygon class="cls-11" points="152.33 177.25 152.85 177.55 152.85 196.48 152.33 196.18 152.33 177.25"/>
              <polygon class="cls-11" points="143.72 172.21 144.25 172.51 144.25 191.44 143.72 191.14 143.72 172.21"/>
              <polygon class="cls-11" points="139.01 169.51 139.53 169.81 139.53 188.73 139.01 188.43 139.01 169.51"/>
              <polygon class="cls-11" points="135.62 167.64 136.15 167.94 136.15 186.86 135.62 186.56 135.62 167.64"/>
              <polygon class="cls-11" points="131.03 164.85 131.56 165.15 131.56 184.08 131.03 183.78 131.03 164.85"/>
              <polygon class="cls-11" points="158.55 180.75 159.6 181.35 159.6 200.28 158.55 199.67 158.55 180.75"/>
            </g>
          </g>
        </g>
      </g>
      <g id="Box-5" data-name="Box">
        <polygon id="Shadow-4" data-name="Shadow" class="cls-17" points="121.48 104.83 241.25 174.13 335.11 119.94 215.12 50.67 121.48 104.83"/>
        <g id="Box-6" data-name="Box">
          <polygon class="cls-13" points="115.94 67 216.42 8.98 333.66 76.67 233.17 134.68 115.94 67"/>
          <g>
            <path class="cls-15" d="m168.91,44.35l33.24,19.15c.6.35.44,1-.36,1.47l-37.53,21.67c-.8.46-1.94.56-2.54.21l-33.25-19.16c-.6-.35-.44-1,.36-1.47l37.54-21.66c.8-.46,1.94-.56,2.54-.21Z"/>
            <g>
              <path class="cls-6" d="m152.12,76.94c-.24,0-.47-.12-.59-.34-.19-.33-.08-.75.25-.94l31.16-17.99c.33-.19.75-.08.94.25.19.33.08.75-.25.94l-31.16,17.99c-.11.06-.23.09-.34.09Z"/>
              <path class="cls-6" d="m155.58,78.92c-.24,0-.47-.12-.59-.34-.19-.33-.08-.75.25-.94l31.16-17.99c.33-.19.75-.08.94.25.19.33.08.75-.25.94l-31.16,17.99c-.11.06-.23.09-.34.09Z"/>
              <path class="cls-6" d="m159.04,80.91c-.24,0-.47-.12-.59-.34-.19-.33-.08-.75.25-.94l31.16-17.99c.33-.19.75-.08.94.25.19.33.08.75-.25.94l-31.16,17.99c-.11.06-.23.09-.34.09Z"/>
              <path class="cls-6" d="m162.5,82.89c-.24,0-.47-.12-.59-.34-.19-.33-.08-.75.25-.94l31.16-17.99c.33-.19.75-.08.94.25.19.33.08.75-.25.94l-31.16,17.99c-.11.06-.23.09-.34.09Z"/>
            </g>
            <g>
              <polygon class="cls-11" points="131.61 66.82 132.83 66.12 147.02 74.32 145.81 75.02 131.61 66.82"/>
              <polygon class="cls-11" points="136.55 63.97 138.65 62.78 152.84 70.97 150.74 72.17 136.55 63.97"/>
              <polygon class="cls-11" points="141.48 61.13 142.69 60.43 156.88 68.62 155.67 69.32 141.48 61.13"/>
              <polygon class="cls-11" points="145.17 58.96 147.62 57.58 161.82 65.77 159.37 67.16 145.17 58.96"/>
              <polygon class="cls-11" points="151.34 55.43 152.55 54.73 166.75 62.92 165.54 63.62 151.34 55.43"/>
              <polygon class="cls-11" points="154.86 53.36 157.49 51.88 171.68 60.08 169.06 61.56 154.86 53.36"/>
              <polygon class="cls-11" points="161.21 49.73 162.42 49.03 176.61 57.23 175.4 57.93 161.21 49.73"/>
              <polygon class="cls-11" points="164.01 48.1 164.61 47.75 178.8 55.94 178.2 56.29 164.01 48.1"/>
              <polygon class="cls-11" points="159.03 51.07 159.63 50.72 173.83 58.92 173.22 59.27 159.03 51.07"/>
              <polygon class="cls-11" points="149.04 56.78 149.64 56.43 163.84 64.62 163.23 64.97 149.04 56.78"/>
              <polygon class="cls-11" points="143.61 59.93 144.21 59.58 158.41 67.77 157.8 68.12 143.61 59.93"/>
              <polygon class="cls-11" points="139.76 62.22 140.37 61.87 154.56 70.06 153.96 70.41 139.76 62.22"/>
              <polygon class="cls-11" points="134.36 65.22 134.97 64.87 149.16 73.07 148.55 73.41 134.36 65.22"/>
              <polygon class="cls-11" points="166.14 46.88 167.35 46.18 181.54 54.38 180.33 55.08 166.14 46.88"/>
            </g>
          </g>
          <polygon class="cls-9" points="233.17 173.36 115.94 105.68 115.94 67 233.17 134.68 233.17 173.36"/>
          <polygon class="cls-14" points="233.17 173.36 333.66 115.35 333.66 76.67 233.17 134.68 233.17 173.36"/>
          <g>
            <polygon class="cls-16" points="293.84 112.15 285.71 116.84 285.71 104.23 293.84 99.54 293.84 112.15"/>
            <polygon class="cls-3" points="285.71 104.23 168.48 36.55 176.6 31.85 293.84 99.54 285.71 104.23"/>
          </g>
          <g>
            <g>
              <path class="cls-11" d="m187.34,133.65c-1.63-.94-2.9-3.35-2.9-5.49v-8.4l5.89,3.46.38-.07v.56h0v7.53c0,1.2-.42,2.13-1.15,2.55-.28.16-.59.24-.92.24-.41,0-.86-.13-1.3-.39Zm.66-9.05l-.43,2.95h-2.18v.62c0,1.77,1.11,3.91,2.43,4.67.35.2.85.39,1.28.14.43-.25.68-.88.68-1.73v-6.96l-1.77.32Zm-.84-.81l1.74-.31-3.52-2.07v5.19h1.36l.41-2.81Z"/>
              <path class="cls-11" d="m187.57,140.03c.26,0,.47-.21.47-.47v-6.31c0-.26-.21-.47-.47-.47s-.47.21-.47.47v6.31c0,.26.21.47.47.47Z"/>
              <path class="cls-11" d="m190.32,141.61c.16,0,.32-.08.41-.24.13-.23.05-.51-.17-.64l-5.49-3.17c-.22-.14-.51-.06-.65.17-.13.23-.05.51.17.64l5.49,3.17c.07.04.16.06.24.06Z"/>
            </g>
            <g>
              <path class="cls-11" d="m206.77,151.37c.18,0,.36-.04.52-.13.36-.21.57-.62.57-1.14v-1.29c0-.26-.21-.47-.47-.47s-.47.21-.47.47v1.29c0,.19-.05.3-.09.32-.04.02-.15.01-.31-.08-.42-.25-.88-1.18-.88-2.14v-8.4c0-.26-.21-.47-.47-.47s-.47.21-.47.47v8.4c0,1.23.58,2.5,1.34,2.95.25.15.5.22.74.22Z"/>
              <path class="cls-11" d="m199.18,136.77v-.27c0-1.97.69-3.45,1.94-4.17,1.25-.72,2.88-.58,4.58.41,3.33,1.92,6.04,6.62,6.04,10.47v.82l-12.56-7.26Zm2.41-3.62c-.89.51-1.41,1.6-1.46,3.08l10.62,6.13c-.35-3.37-2.7-7.17-5.53-8.81-.84-.49-1.64-.73-2.36-.73-.47,0-.9.11-1.28.33Z"/>
            </g>
            <g>
              <g>
                <path class="cls-11" d="m225.76,161.97c.26,0,.47-.21.47-.47v-16.08c0-.26-.21-.47-.47-.47s-.47.21-.47.47v16.08c0,.26.21.47.47.47Z"/>
                <path class="cls-11" d="m227.14,149.08c.06,0,.13-.01.19-.04.24-.1.35-.38.25-.62l-1.68-3.88-1.88,2.17c-.17.2-.15.49.05.67.2.17.5.15.67-.05l.89-1.03,1.09,2.51c.08.18.25.28.43.28Z"/>
              </g>
              <g>
                <path class="cls-11" d="m221.39,159.48c.26,0,.47-.21.47-.47v-16.08c0-.26-.21-.47-.47-.47s-.47.21-.47.47v16.08c0,.26.21.47.47.47Z"/>
                <path class="cls-11" d="m222.78,146.59c.06,0,.13-.01.19-.04.24-.1.35-.38.25-.62l-1.68-3.88-1.88,2.17c-.17.2-.15.49.05.67.2.17.5.15.67-.05l.89-1.03,1.09,2.51c.08.18.25.28.43.28Z"/>
              </g>
            </g>
          </g>
          <g>
            <path class="cls-15" d="m154.13,98.16v20.82c0,.8-.56,1.13-1.26.73l-32.5-18.76c-.69-.4-1.26-1.38-1.26-2.18v-20.83c0-.8.56-1.13,1.26-.73l32.5,18.78c.69.4,1.26,1.38,1.26,2.18Z"/>
            <g>
              <polygon class="cls-11" points="121.13 80.19 122.18 80.79 122.18 99.72 121.13 99.11 121.13 80.19"/>
              <polygon class="cls-11" points="125.4 82.65 127.21 83.72 127.21 102.64 125.4 101.58 125.4 82.65"/>
              <polygon class="cls-11" points="129.67 85.12 130.72 85.72 130.72 104.65 129.67 104.04 129.67 85.12"/>
              <polygon class="cls-11" points="132.89 86.94 134.99 88.19 134.99 107.11 132.89 105.87 132.89 86.94"/>
              <polygon class="cls-11" points="138.22 90.05 139.27 90.65 139.26 109.58 138.21 108.97 138.22 90.05"/>
              <polygon class="cls-11" points="141.29 91.78 143.54 93.12 143.54 112.04 141.29 110.71 141.29 91.78"/>
              <polygon class="cls-11" points="146.76 94.98 147.81 95.58 147.81 114.51 146.76 113.9 146.76 94.98"/>
              <polygon class="cls-11" points="149.2 96.37 149.72 96.67 149.72 115.59 149.2 115.29 149.2 96.37"/>
              <polygon class="cls-11" points="144.81 93.95 145.34 94.25 145.34 113.18 144.81 112.87 144.81 93.95"/>
              <polygon class="cls-11" points="136.21 88.91 136.73 89.21 136.73 108.14 136.21 107.83 136.21 88.91"/>
              <polygon class="cls-11" points="131.49 86.2 132.02 86.51 132.02 105.43 131.49 105.13 131.49 86.2"/>
              <polygon class="cls-11" points="128.11 84.33 128.63 84.64 128.63 103.56 128.11 103.26 128.11 84.33"/>
              <polygon class="cls-11" points="123.52 81.55 124.04 81.85 124.04 100.78 123.52 100.47 123.52 81.55"/>
              <polygon class="cls-11" points="151.03 97.44 152.08 98.05 152.08 116.97 151.03 116.37 151.03 97.44"/>
            </g>
          </g>
        </g>
      </g>
      <g id="Box-7" data-name="Box">
        <polygon id="Shadow-5" data-name="Shadow" class="cls-17" points="171.94 331.01 80.12 383.95 11.4 344.23 103.42 291.4 171.94 331.01"/>
        <g id="Box-8" data-name="Box">
          <polygon class="cls-13" points="19.78 174.99 103.52 126.65 164.93 162.1 81.19 210.45 19.78 174.99"/>
          <g>
            <path class="cls-15" d="m102.7,133.59l-25.7,14.81c-.46.27-.34.78.28,1.13l29.02,16.75c.62.36,1.5.43,1.96.16l25.71-14.81c.46-.27.34-.78-.28-1.13l-29.02-16.75c-.62-.36-1.5-.43-1.96-.16Z"/>
            <g>
              <path class="cls-6" d="m115.68,158.79c.18,0,.36-.1.46-.27.15-.25.06-.58-.19-.73l-24.09-13.91c-.25-.15-.58-.06-.73.19-.15.25-.06.58.19.73l24.09,13.91c.08.05.18.07.27.07Z"/>
              <path class="cls-6" d="m113.01,160.32c.18,0,.36-.1.46-.27.15-.25.06-.58-.19-.73l-24.09-13.91c-.25-.15-.58-.06-.73.19-.15.25-.06.58.19.73l24.09,13.91c.08.05.18.07.27.07Z"/>
              <path class="cls-6" d="m110.34,161.85c.18,0,.36-.1.46-.27.15-.25.06-.58-.19-.73l-24.09-13.91c-.25-.15-.58-.06-.73.19-.15.25-.06.58.19.73l24.09,13.91c.08.05.18.07.27.07Z"/>
              <path class="cls-6" d="m107.66,163.39c.18,0,.36-.1.46-.27.15-.25.06-.58-.19-.73l-24.09-13.91c-.25-.15-.58-.06-.73.19-.15.25-.06.58.19.73l24.09,13.91c.08.05.18.07.27.07Z"/>
            </g>
            <g>
              <polygon class="cls-11" points="131.54 150.97 130.6 150.42 119.63 156.76 120.57 157.3 131.54 150.97"/>
              <polygon class="cls-11" points="127.73 148.76 126.1 147.84 115.13 154.17 116.75 155.1 127.73 148.76"/>
              <polygon class="cls-11" points="123.91 146.56 122.98 146.02 112 152.36 112.94 152.9 123.91 146.56"/>
              <polygon class="cls-11" points="121.06 144.89 119.16 143.82 108.19 150.15 110.08 151.23 121.06 144.89"/>
              <polygon class="cls-11" points="116.29 142.16 115.35 141.62 104.38 147.95 105.31 148.49 116.29 142.16"/>
              <polygon class="cls-11" points="113.56 140.56 111.54 139.41 100.56 145.75 102.59 146.89 113.56 140.56"/>
              <polygon class="cls-11" points="108.66 137.75 107.72 137.21 96.75 143.55 97.69 144.09 108.66 137.75"/>
              <polygon class="cls-11" points="106.5 136.49 106.03 136.22 95.05 142.55 95.52 142.82 106.5 136.49"/>
              <polygon class="cls-11" points="110.34 138.79 109.88 138.52 98.9 144.85 99.37 145.12 110.34 138.79"/>
              <polygon class="cls-11" points="118.07 143.2 117.6 142.93 106.63 149.26 107.09 149.53 118.07 143.2"/>
              <polygon class="cls-11" points="122.27 145.63 121.8 145.36 110.82 151.7 111.29 151.97 122.27 145.63"/>
              <polygon class="cls-11" points="125.24 147.41 124.77 147.14 113.8 153.47 114.27 153.74 125.24 147.41"/>
              <polygon class="cls-11" points="129.42 149.73 128.95 149.46 117.97 155.79 118.44 156.06 129.42 149.73"/>
              <polygon class="cls-11" points="104.85 135.55 103.91 135.01 92.94 141.34 93.87 141.89 104.85 135.55"/>
            </g>
          </g>
          <polygon class="cls-9" points="81.19 378.07 19.78 342.62 19.78 174.99 81.19 210.45 81.19 378.07"/>
          <polygon class="cls-14" points="81.19 378.07 164.93 329.73 164.93 162.1 81.19 210.45 81.19 378.07"/>
          <g>
            <polygon class="cls-16" points="125.85 197.27 117.72 201.97 117.72 189.35 125.85 184.66 125.85 197.27"/>
            <polygon class="cls-3" points="117.72 189.36 56.31 153.9 64.44 149.21 125.85 184.66 117.72 189.36"/>
          </g>
          <g>
            <g>
              <path class="cls-11" d="m35.35,338.36c-1.63-.94-2.9-3.35-2.9-5.49v-8.4l5.89,3.46.38-.07v.56h0v7.53c0,1.2-.42,2.13-1.15,2.55-.28.16-.59.24-.92.24-.41,0-.86-.13-1.3-.39Zm.66-9.05l-.43,2.95h-2.18v.62c0,1.77,1.11,3.91,2.43,4.67.35.2.85.39,1.28.14.43-.25.68-.88.68-1.73v-6.96l-1.77.32Zm-.84-.81l1.74-.31-3.52-2.07v5.19h1.36l.41-2.81Z"/>
              <path class="cls-11" d="m35.59,344.74c.26,0,.47-.21.47-.47v-6.31c0-.26-.21-.47-.47-.47s-.47.21-.47.47v6.31c0,.26.21.47.47.47Z"/>
              <path class="cls-11" d="m38.33,346.33c.16,0,.32-.08.41-.24.13-.23.05-.51-.17-.65l-5.49-3.17c-.22-.14-.51-.06-.65.17-.13.23-.05.51.17.64l5.49,3.17c.07.04.16.06.24.06Z"/>
            </g>
            <g>
              <path class="cls-11" d="m54.78,356.08c.18,0,.36-.04.52-.13.36-.21.57-.62.57-1.14v-1.29c0-.26-.21-.47-.47-.47s-.47.21-.47.47v1.29c0,.19-.05.3-.09.32-.04.02-.15.01-.31-.08-.42-.25-.88-1.18-.88-2.14v-8.4c0-.26-.21-.47-.47-.47s-.47.21-.47.47v8.4c0,1.23.58,2.5,1.34,2.95.25.15.5.22.74.22Z"/>
              <path class="cls-11" d="m47.2,341.49v-.27c0-1.97.69-3.45,1.94-4.17,1.25-.72,2.88-.58,4.58.41,3.33,1.92,6.04,6.62,6.04,10.47v.82l-12.56-7.26Zm2.41-3.62c-.89.51-1.41,1.6-1.46,3.08l10.62,6.13c-.35-3.37-2.7-7.17-5.53-8.81-.84-.49-1.64-.73-2.36-.73-.47,0-.9.11-1.28.33Z"/>
            </g>
            <g>
              <g>
                <path class="cls-11" d="m73.78,366.68c.26,0,.47-.21.47-.47v-16.08c0-.26-.21-.47-.47-.47s-.47.21-.47.47v16.08c0,.26.21.47.47.47Z"/>
                <path class="cls-11" d="m75.16,353.8c.06,0,.13-.01.19-.04.24-.1.35-.38.25-.62l-1.68-3.88-1.88,2.17c-.17.2-.15.49.05.67.2.17.5.15.67-.05l.89-1.03,1.09,2.51c.08.18.25.28.43.28Z"/>
              </g>
              <g>
                <path class="cls-11" d="m69.41,364.19c.26,0,.47-.21.47-.47v-16.08c0-.26-.21-.47-.47-.47s-.47.21-.47.47v16.08c0,.26.21.47.47.47Z"/>
                <path class="cls-11" d="m70.79,351.31c.06,0,.13-.01.19-.04.24-.1.35-.38.25-.62l-1.68-3.88-1.88,2.17c-.17.2-.15.49.05.67.2.17.5.15.67-.05l.89-1.03,1.09,2.51c.08.18.25.28.43.28Z"/>
              </g>
            </g>
          </g>
          <g>
            <path class="cls-15" d="m75.6,315.36v20.82c0,.8-.56,1.13-1.26.73l-32.5-18.76c-.69-.4-1.26-1.38-1.26-2.18v-20.83c0-.8.56-1.13,1.26-.73l32.5,18.78c.69.4,1.26,1.38,1.26,2.18Z"/>
            <g>
              <polygon class="cls-11" points="42.6 297.38 43.65 297.99 43.65 316.91 42.6 316.31 42.6 297.38"/>
              <polygon class="cls-11" points="46.87 299.85 48.68 300.91 48.68 319.84 46.87 318.77 46.87 299.85"/>
              <polygon class="cls-11" points="51.15 302.31 52.2 302.92 52.2 321.84 51.15 321.24 51.15 302.31"/>
              <polygon class="cls-11" points="54.37 304.14 56.47 305.38 56.47 324.31 54.37 323.06 54.37 304.14"/>
              <polygon class="cls-11" points="59.69 307.24 60.74 307.85 60.74 326.77 59.69 326.17 59.69 307.24"/>
              <polygon class="cls-11" points="62.77 308.98 65.01 310.32 65.01 329.24 62.77 327.91 62.77 308.98"/>
              <polygon class="cls-11" points="68.23 312.17 69.28 312.78 69.28 331.71 68.23 331.1 68.23 312.17"/>
              <polygon class="cls-11" points="70.67 313.56 71.2 313.86 71.2 332.79 70.67 332.49 70.67 313.56"/>
              <polygon class="cls-11" points="66.29 311.14 66.81 311.45 66.81 330.37 66.29 330.07 66.29 311.14"/>
              <polygon class="cls-11" points="57.68 306.1 58.21 306.41 58.21 325.33 57.68 325.03 57.68 306.1"/>
              <polygon class="cls-11" points="52.97 303.4 53.49 303.7 53.49 322.63 52.97 322.32 52.97 303.4"/>
              <polygon class="cls-11" points="49.58 301.53 50.11 301.83 50.11 320.76 49.58 320.45 49.58 301.53"/>
              <polygon class="cls-11" points="44.99 298.74 45.52 299.05 45.52 317.97 44.99 317.67 44.99 298.74"/>
              <polygon class="cls-11" points="72.51 314.64 73.56 315.25 73.56 334.17 72.51 333.56 72.51 314.64"/>
            </g>
          </g>
        </g>
      </g>
      <g id="Box-9" data-name="Box">
        <polygon id="Shadow-6" data-name="Shadow" class="cls-17" points="247.03 374.31 155.21 427.26 84.71 386.66 176.74 333.83 247.03 374.31"/>
        <g id="Box-10" data-name="Box">
          <polygon class="cls-2" points="95.37 304.7 179.11 256.35 240.52 291.8 156.78 340.15 95.37 304.7"/>
          <g>
            <path class="cls-15" d="m178.29,263.3l-25.7,14.81c-.46.27-.34.78.28,1.13l29.02,16.75c.62.36,1.5.43,1.96.16l25.71-14.81c.46-.27.34-.78-.28-1.13l-29.02-16.75c-.62-.36-1.5-.43-1.96-.16Z"/>
            <g>
              <path class="cls-6" d="m191.28,288.49c.18,0,.36-.1.46-.27.15-.25.06-.58-.19-.73l-24.09-13.91c-.25-.15-.58-.06-.73.19-.15.25-.06.58.19.73l24.09,13.91c.08.05.18.07.27.07Z"/>
              <path class="cls-6" d="m188.6,290.03c.18,0,.36-.1.46-.27.15-.25.06-.58-.19-.73l-24.09-13.91c-.25-.15-.58-.06-.73.19-.15.25-.06.58.19.73l24.09,13.91c.08.05.18.07.27.07Z"/>
              <path class="cls-6" d="m185.93,291.56c.18,0,.36-.1.46-.27.15-.25.06-.58-.19-.73l-24.09-13.91c-.25-.15-.58-.06-.73.19-.15.25-.06.58.19.73l24.09,13.91c.08.05.18.07.27.07Z"/>
              <path class="cls-6" d="m183.25,293.09c.18,0,.36-.1.46-.27.15-.25.06-.58-.19-.73l-24.09-13.91c-.25-.15-.58-.06-.73.19-.15.25-.06.58.19.73l24.09,13.91c.08.05.18.07.27.07Z"/>
            </g>
            <g>
              <polygon class="cls-11" points="207.13 280.67 206.19 280.13 195.22 286.46 196.16 287.01 207.13 280.67"/>
              <polygon class="cls-11" points="203.32 278.47 201.69 277.54 190.72 283.88 192.34 284.8 203.32 278.47"/>
              <polygon class="cls-11" points="199.5 276.27 198.57 275.72 187.59 282.06 188.53 282.6 199.5 276.27"/>
              <polygon class="cls-11" points="196.65 274.59 194.75 273.52 183.78 279.86 185.67 280.93 196.65 274.59"/>
              <polygon class="cls-11" points="191.88 271.86 190.94 271.32 179.97 277.66 180.9 278.2 191.88 271.86"/>
              <polygon class="cls-11" points="189.15 270.26 187.13 269.12 176.15 275.45 178.18 276.6 189.15 270.26"/>
              <polygon class="cls-11" points="184.25 267.46 183.31 266.92 172.34 273.25 173.28 273.79 184.25 267.46"/>
              <polygon class="cls-11" points="182.09 266.19 181.62 265.92 170.65 272.26 171.11 272.53 182.09 266.19"/>
              <polygon class="cls-11" points="185.94 268.49 185.47 268.22 174.49 274.56 174.96 274.83 185.94 268.49"/>
              <polygon class="cls-11" points="193.66 272.9 193.19 272.63 182.22 278.97 182.69 279.24 193.66 272.9"/>
              <polygon class="cls-11" points="197.86 275.34 197.39 275.07 186.42 281.4 186.88 281.67 197.86 275.34"/>
              <polygon class="cls-11" points="200.83 277.11 200.36 276.84 189.39 283.18 189.86 283.45 200.83 277.11"/>
              <polygon class="cls-11" points="205.01 279.43 204.54 279.16 193.57 285.5 194.03 285.77 205.01 279.43"/>
              <polygon class="cls-11" points="180.44 265.25 179.5 264.71 168.53 271.05 169.46 271.59 180.44 265.25"/>
            </g>
          </g>
          <polygon class="cls-13" points="156.78 421.72 95.37 386.26 95.37 304.7 156.78 340.15 156.78 421.72"/>
          <polygon class="cls-9" points="156.78 421.72 240.52 373.37 240.52 291.8 156.78 340.15 156.78 421.72"/>
          <g>
            <polygon class="cls-16" points="201.44 326.98 193.31 331.67 193.31 319.06 201.44 314.37 201.44 326.98"/>
            <polygon class="cls-3" points="193.31 319.06 131.91 283.61 140.03 278.91 201.44 314.37 193.31 319.06"/>
          </g>
          <g>
            <g>
              <path class="cls-11" d="m232.77,365.53c-.22,0-.42-.05-.61-.16-.48-.28-.76-.89-.76-1.68v-4.95h0v-.38l.25.05,3.88-2.28v5.53c0,1.41-.84,3-1.91,3.61-.29.17-.58.25-.86.25Zm-.74-6.43v4.58c0,.56.16.98.45,1.14.28.16.61.04.84-.09.87-.5,1.6-1.91,1.6-3.08v-.41h-1.44l-.28-1.94-1.17-.21Zm1.99,1.53h.9v-3.42l-2.32,1.36,1.15.2.27,1.85Z"/>
              <path class="cls-11" d="m233.47,369.47c-.17,0-.31-.14-.31-.31v-4.16c0-.17.14-.31.31-.31s.31.14.31.31v4.16c0,.17-.14.31-.31.31Z"/>
              <path class="cls-11" d="m231.67,370.52c-.11,0-.21-.06-.27-.16-.09-.15-.04-.34.11-.42l3.62-2.09c.15-.09.34-.04.42.11.09.15.04.34-.11.42l-3.62,2.09s-.1.04-.16.04Z"/>
            </g>
            <g>
              <path class="cls-11" d="m220.83,376.95c-.12,0-.24-.03-.34-.09-.24-.14-.37-.41-.37-.75v-.85c0-.17.14-.31.31-.31s.31.14.31.31v.85c0,.13.04.19.06.21.02.01.1,0,.2-.05.27-.16.58-.78.58-1.41v-5.53c0-.17.14-.31.31-.31s.31.14.31.31v5.53c0,.81-.38,1.65-.88,1.94-.17.1-.33.15-.49.15Z"/>
              <path class="cls-11" d="m217.55,372.11v-.54c0-2.54,1.79-5.63,3.98-6.9,1.12-.65,2.2-.74,3.02-.27.82.48,1.28,1.45,1.28,2.75v.18l-8.28,4.78Zm5.85-7.38c-.47,0-1,.16-1.55.48-1.87,1.08-3.41,3.58-3.64,5.8l7-4.04c-.04-.97-.37-1.69-.96-2.03-.25-.14-.53-.21-.84-.21Z"/>
            </g>
            <g>
              <g>
                <path class="cls-11" d="m208.31,383.93c-.17,0-.31-.14-.31-.31v-10.59c0-.17.14-.31.31-.31s.31.14.31.31v10.59c0,.17-.14.31-.31.31Z"/>
                <path class="cls-11" d="m207.4,375.44s-.08,0-.12-.03c-.16-.07-.23-.25-.16-.41l1.11-2.56,1.24,1.43c.11.13.1.33-.03.44-.13.11-.33.1-.44-.03l-.59-.68-.72,1.65c-.05.12-.17.19-.29.19Z"/>
              </g>
              <g>
                <path class="cls-11" d="m211.19,382.29c-.17,0-.31-.14-.31-.31v-10.6c0-.17.14-.31.31-.31s.31.14.31.31v10.6c0,.17-.14.31-.31.31Z"/>
                <path class="cls-11" d="m210.28,373.8s-.08,0-.12-.03c-.16-.07-.23-.25-.16-.41l1.11-2.56,1.24,1.43c.11.13.1.33-.03.44-.13.11-.33.1-.44-.03l-.59-.68-.72,1.65c-.05.12-.17.19-.29.19Z"/>
              </g>
            </g>
          </g>
          <g>
            <path class="cls-15" d="m163.38,388.01v20.82c0,.8.56,1.13,1.26.73l32.5-18.76c.69-.4,1.26-1.38,1.26-2.18v-20.83c0-.8-.56-1.13-1.26-.73l-32.5,18.78c-.69.4-1.26,1.38-1.26,2.18Z"/>
            <g>
              <polygon class="cls-11" points="196.38 370.04 195.33 370.64 195.33 389.57 196.38 388.96 196.38 370.04"/>
              <polygon class="cls-11" points="192.11 372.5 190.3 373.57 190.3 392.49 192.11 391.43 192.11 372.5"/>
              <polygon class="cls-11" points="187.84 374.97 186.79 375.58 186.79 394.5 187.84 393.89 187.84 374.97"/>
              <polygon class="cls-11" points="184.62 376.79 182.52 378.04 182.52 396.96 184.62 395.72 184.62 376.79"/>
              <polygon class="cls-11" points="179.29 379.9 178.24 380.51 178.24 399.43 179.29 398.82 179.29 379.9"/>
              <polygon class="cls-11" points="176.22 381.64 173.97 382.97 173.97 401.9 176.22 400.56 176.22 381.64"/>
              <polygon class="cls-11" points="170.75 384.83 169.7 385.44 169.7 404.36 170.75 403.75 170.75 384.83"/>
              <polygon class="cls-11" points="168.31 386.22 167.79 386.52 167.79 405.44 168.31 405.14 168.31 386.22"/>
              <polygon class="cls-11" points="172.7 383.8 172.17 384.1 172.17 403.03 172.7 402.72 172.7 383.8"/>
              <polygon class="cls-11" points="181.3 378.76 180.78 379.06 180.78 397.99 181.3 397.68 181.3 378.76"/>
              <polygon class="cls-11" points="186.01 376.05 185.49 376.36 185.49 395.28 186.01 394.98 186.01 376.05"/>
              <polygon class="cls-11" points="189.4 374.18 188.87 374.49 188.88 393.41 189.4 393.11 189.4 374.18"/>
              <polygon class="cls-11" points="193.99 371.4 193.46 371.7 193.47 390.63 193.99 390.32 193.99 371.4"/>
              <polygon class="cls-11" points="166.48 387.3 165.43 387.9 165.43 406.83 166.48 406.22 166.48 387.3"/>
            </g>
          </g>
        </g>
      </g>
    </g>
  </g>
</svg>