<svg width="24" height="24" viewBox="0 0 24 24" fill="none" xmlns="http://www.w3.org/2000/svg">
<path d="M18 11C18 7.13401 14.866 3.99999 11 3.99998C7.134 3.99998 3.99998 7.134 3.99998 11C3.99999 14.866 7.13401 18 11 18C14.866 18 18 14.866 18 11ZM20 11C20 13.125 19.2635 15.078 18.0319 16.6176L21.7071 20.2929L21.7251 20.3114C22.0975 20.7031 22.0915 21.3227 21.7071 21.7071C21.3227 22.0915 20.7031 22.0975 20.3114 21.7251L20.2929 21.7071L16.6176 18.0319C15.078 19.2635 13.125 20 11 20C6.02944 20 2.00001 15.9706 2 11C2 6.02944 6.02944 2 11 2C15.9706 2.00001 20 6.02944 20 11Z" fill="white"/>
</svg>
