<svg width="344" height="348" viewBox="0 0 344 348" fill="none" xmlns="http://www.w3.org/2000/svg">
<path d="M154.779 6.52344C165.572 0.90118 178.429 0.901111 189.222 6.52344C196.559 10.3457 204.896 11.8156 213.098 10.7334C225.162 9.14141 237.245 13.5391 245.464 22.5137C251.051 28.6149 258.382 32.8475 266.46 34.6357C278.342 37.2661 288.191 45.531 292.845 56.7754C296.009 64.4198 301.45 70.9045 308.429 75.3477C318.694 81.8831 325.123 93.018 325.65 105.176C326.009 113.441 328.904 121.396 333.942 127.958C341.353 137.61 343.587 150.273 339.924 161.878C337.434 169.768 337.434 178.233 339.924 186.123C343.586 197.728 341.353 210.39 333.942 220.042C328.904 226.604 326.009 234.56 325.65 242.825C325.123 254.983 318.694 266.118 308.429 272.653C301.45 277.097 296.008 283.581 292.845 291.226C288.191 302.47 278.342 310.735 266.46 313.365C258.382 315.154 251.051 319.386 245.464 325.487C237.245 334.462 225.162 338.86 213.098 337.268C204.896 336.185 196.559 337.655 189.222 341.478C178.429 347.1 165.572 347.1 154.779 341.478C147.442 337.655 139.105 336.185 130.902 337.268C118.838 338.859 106.756 334.462 98.5371 325.487C92.9495 319.386 85.6178 315.154 77.54 313.365C65.6586 310.735 55.8089 302.47 51.1553 291.226C47.9915 283.581 42.5503 277.096 35.5713 272.653C25.306 266.118 18.8769 254.983 18.3496 242.825C17.9912 234.56 15.0961 226.604 10.0576 220.042C2.64681 210.39 0.414512 197.728 4.07715 186.123C6.56734 178.233 6.56734 169.768 4.07715 161.878C0.414336 150.273 2.64655 137.61 10.0576 127.958C15.096 121.396 17.9912 113.441 18.3496 105.176C18.8768 93.018 25.306 81.8832 35.5713 75.3477C42.5502 70.9045 47.9914 64.4197 51.1553 56.7754C55.8089 45.5312 65.6586 37.2662 77.54 34.6357C85.6178 32.8475 92.9495 28.615 98.5371 22.5137C106.756 13.5391 118.838 9.14149 130.902 10.7334C138.848 11.7819 146.92 10.4352 154.088 6.875L154.779 6.52344Z" stroke="#FF9F45" stroke-width="3"/>
</svg>
