<svg width="248" height="250" viewBox="0 0 248 250" fill="none" xmlns="http://www.w3.org/2000/svg">
<path d="M111.121 3.64549C119.192 -0.559 128.807 -0.559 136.878 3.64549V3.64549C141.957 6.29101 147.726 7.30839 153.403 6.5593V6.5593C162.426 5.36878 171.461 8.65735 177.607 15.3687V15.3687C181.474 19.5916 186.548 22.521 192.139 23.7587V23.7587C201.024 25.7257 208.39 31.9062 211.87 40.3149V40.3149C214.06 45.6058 217.826 50.0939 222.656 53.1691V53.1691C230.332 58.0565 235.14 66.3834 235.534 75.4753V75.4753C235.782 81.196 237.786 86.7015 241.273 91.2433V91.2433C246.815 98.4615 248.485 107.931 245.746 116.609V116.609C244.022 122.069 244.022 127.928 245.746 133.389V133.389C248.485 142.067 246.815 151.536 241.273 158.754V158.754C237.786 163.296 235.782 168.802 235.534 174.523V174.523C235.14 183.614 230.332 191.941 222.656 196.829V196.829C217.826 199.904 214.06 204.392 211.87 209.683V209.683C208.39 218.092 201.024 224.272 192.139 226.239V226.239C186.548 227.477 181.474 230.406 177.607 234.629V234.629C171.461 241.34 162.426 244.629 153.403 243.438V243.438C147.726 242.689 141.957 243.707 136.878 246.352V246.352C128.807 250.557 119.192 250.557 111.121 246.352V246.352C106.043 243.707 100.273 242.689 94.5963 243.438V243.438C85.5742 244.629 76.5389 241.34 70.3928 234.629V234.629C66.5255 230.406 61.4516 227.477 55.8609 226.239V226.239C46.9756 224.272 39.61 218.092 36.1299 209.683V209.683C33.9402 204.392 30.1742 199.904 25.344 196.829V196.829C17.6673 191.941 12.8598 183.614 12.4655 174.523V174.523C12.2174 168.802 10.2136 163.296 6.72642 158.754V158.754C1.18431 151.536 -0.485343 142.067 2.25377 133.389V133.389C3.97726 127.928 3.97726 122.069 2.25377 116.609V116.609C-0.485343 107.931 1.18431 98.4615 6.72642 91.2433V91.2433C10.2136 86.7015 12.2174 81.196 12.4655 75.4753V75.4753C12.8598 66.3834 17.6673 58.0565 25.344 53.1691V53.1691C30.1742 50.0939 33.9402 45.6058 36.1299 40.3149V40.3149C39.61 31.9062 46.9756 25.7257 55.8609 23.7587V23.7587C61.4516 22.521 66.5255 19.5916 70.3928 15.3687V15.3687C76.5389 8.65735 85.5742 5.36878 94.5963 6.5593V6.5593C100.273 7.30839 106.043 6.29101 111.121 3.64549V3.64549Z" fill="#FF9F45"/>
</svg>
